<svg id="Layer_1" data-name="Layer 1" xmlns="http://www.w3.org/2000/svg" width="111" height="111" viewBox="0 0 111 111"><title>adaptive-design-icon-transparent-background</title><rect width="111" height="111" style="fill:#f2f2f2;opacity:0"/><circle cx="55.5" cy="55.5" r="36.08" style="fill:#fff"/><g style="opacity:0"><path d="M336.09,327.9l-1.85,4.77h1l.39-1.08h1.91l.41,1.08h1l-1.91-4.77Zm-.14,2.88.64-1.77.66,1.77Z" transform="translate(-309 -229)" style="fill:#474f59"/><path d="M342.91,328.43a1.67,1.67,0,0,0-.72-.44,3.4,3.4,0,0,0-.9-.09h-1.76v4.77h1.81a2.78,2.78,0,0,0,.85-.1,1.71,1.71,0,0,0,.68-.38,2.2,2.2,0,0,0,.51-.84,3.15,3.15,0,0,0,.14-1,3.68,3.68,0,0,0-.15-1.13A2.19,2.19,0,0,0,342.91,328.43Zm-.48,2.73a.94.94,0,0,1-.25.46.81.81,0,0,1-.39.2,2.56,2.56,0,0,1-.58.05h-.72v-3.16h.43a4.48,4.48,0,0,1,.79,0,1,1,0,0,1,.45.23,1,1,0,0,1,.27.46,2.69,2.69,0,0,1,.1.85A2.88,2.88,0,0,1,342.43,331.16Z" transform="translate(-309 -229)" style="fill:#474f59"/><path d="M345.71,327.9l-1.85,4.77h1l.39-1.08h1.91l.41,1.08h1.05l-1.91-4.77Zm-.14,2.88.64-1.77.66,1.77Z" transform="translate(-309 -229)" style="fill:#474f59"/><path d="M351.84,328a6.3,6.3,0,0,0-1.14-.07h-1.55v4.77h1v-1.8h.63a5.08,5.08,0,0,0,1-.07,1.37,1.37,0,0,0,.5-.22,1.32,1.32,0,0,0,.4-.47,1.53,1.53,0,0,0,.16-.74,1.51,1.51,0,0,0-.27-.93A1.34,1.34,0,0,0,351.84,328Zm-.14,1.78a.6.6,0,0,1-.3.24,2.53,2.53,0,0,1-.76.07h-.53v-1.35h.47a4.88,4.88,0,0,1,.69,0,.68.68,0,0,1,.39.21.68.68,0,0,1,0,.8Z" transform="translate(-309 -229)" style="fill:#474f59"/><polygon points="44.25 99.71 45.67 99.71 45.67 103.67 46.63 103.67 46.63 99.71 48.04 99.71 48.04 98.9 44.25 98.9 44.25 99.71" style="fill:#474f59"/><rect x="48.63" y="98.9" width="0.96" height="4.77" style="fill:#474f59"/><polygon points="52.27 102.43 51.07 98.9 50.02 98.9 51.73 103.67 52.76 103.67 54.46 98.9 53.44 98.9 52.27 102.43" style="fill:#474f59"/><polygon points="55.92 101.57 58.31 101.57 58.31 100.77 55.92 100.77 55.92 99.71 58.49 99.71 58.49 98.9 54.95 98.9 54.95 103.67 58.58 103.67 58.58 102.87 55.92 102.87 55.92 101.57" style="fill:#474f59"/><path d="M373.63,328.43a1.67,1.67,0,0,0-.72-.44,3.49,3.49,0,0,0-.91-.09h-1.76v4.77h1.81a2.89,2.89,0,0,0,.86-.1,1.66,1.66,0,0,0,.67-.38,2.2,2.2,0,0,0,.51-.84,3.13,3.13,0,0,0,.15-1,3.38,3.38,0,0,0-.16-1.13A2,2,0,0,0,373.63,328.43Zm-.48,2.73a.94.94,0,0,1-.26.46.82.82,0,0,1-.38.2,2.66,2.66,0,0,1-.59.05h-.71v-3.16h.43a4.63,4.63,0,0,1,.79,0,.89.89,0,0,1,.44.23,1.09,1.09,0,0,1,.28.46,3.09,3.09,0,0,1,.09.85A3.31,3.31,0,0,1,373.15,331.16Z" transform="translate(-309 -229)" style="fill:#474f59"/><polygon points="67.02 101.57 69.41 101.57 69.41 100.77 67.02 100.77 67.02 99.71 69.59 99.71 69.59 98.9 66.06 98.9 66.06 103.67 69.68 103.67 69.68 102.87 67.02 102.87 67.02 101.57" style="fill:#474f59"/><path d="M382.41,330a4.4,4.4,0,0,0-1-.35,2.63,2.63,0,0,1-.88-.31.35.35,0,0,1-.14-.29.34.34,0,0,1,.15-.3,1.15,1.15,0,0,1,.66-.17,1,1,0,0,1,.61.16.83.83,0,0,1,.26.53l1-.05a1.4,1.4,0,0,0-.47-1.05,2.05,2.05,0,0,0-1.35-.39,2.39,2.39,0,0,0-.94.17,1.31,1.31,0,0,0-.6.48,1.28,1.28,0,0,0-.2.68,1.21,1.21,0,0,0,.44,1,2.55,2.55,0,0,0,1.08.47l.77.21a.81.81,0,0,1,.35.21.45.45,0,0,1,.1.28.57.57,0,0,1-.24.46,1,1,0,0,1-.7.2,1,1,0,0,1-.7-.22,1.19,1.19,0,0,1-.34-.69l-.94.09a1.88,1.88,0,0,0,.58,1.22,2.13,2.13,0,0,0,1.39.41,2.63,2.63,0,0,0,1-.17,1.35,1.35,0,0,0,.64-.53,1.44,1.44,0,0,0,.23-.77,1.41,1.41,0,0,0-.19-.76A1.37,1.37,0,0,0,382.41,330Z" transform="translate(-309 -229)" style="fill:#474f59"/><rect x="74.91" y="98.9" width="0.96" height="4.77" style="fill:#474f59"/><path d="M388,330.92h1.1v.6a2.14,2.14,0,0,1-.52.29,1.66,1.66,0,0,1-.61.12,1.25,1.25,0,0,1-1-.43,1.85,1.85,0,0,1-.37-1.27A1.7,1.7,0,0,1,387,329a1.32,1.32,0,0,1,1-.4,1.14,1.14,0,0,1,.7.21,1,1,0,0,1,.38.55l.95-.18a1.67,1.67,0,0,0-.64-1,2.34,2.34,0,0,0-1.39-.37,2.46,2.46,0,0,0-1.14.24,2.06,2.06,0,0,0-.91.89,2.69,2.69,0,0,0-.32,1.32,3,3,0,0,0,.28,1.27,2,2,0,0,0,.84.9,2.6,2.6,0,0,0,1.3.31,3.19,3.19,0,0,0,1.17-.22,2.53,2.53,0,0,0,.87-.52v-1.9H388Z" transform="translate(-309 -229)" style="fill:#474f59"/><polygon points="84.87 98.9 84.87 102.09 82.92 98.9 81.98 98.9 81.98 103.67 82.88 103.67 82.88 100.56 84.8 103.67 85.76 103.67 85.76 98.9 84.87 98.9" style="fill:#474f59"/></g><polygon points="20.26 54.64 18.51 54.64 18.51 52.89 19.34 52.89 19.34 53.8 20.26 53.8 20.26 54.64" style="fill:#656a73"/><path d="M328.34,279.47h-.83v-2.41h.83Zm0-4.83h-.83v-2.41h.83Zm0-4.83h-.83V267.4h.83Zm0-4.83h-.83v-2.41h.83Zm0-4.83h-.83v-2.41h.83Z" transform="translate(-309 -229)" style="fill:#656a73"/><polygon points="19.34 26.32 18.51 26.32 18.51 24.57 20.26 24.57 20.26 25.41 19.34 25.41 19.34 26.32" style="fill:#656a73"/><path d="M397.13,254.4h-2.61v-.83h2.61Zm-5.22,0H389.3v-.83h2.61Zm-5.22,0h-2.61v-.83h2.61Zm-5.22,0h-2.61v-.83h2.61Zm-5.22,0h-2.61v-.83h2.61Zm-5.22,0h-2.61v-.83H371Zm-5.22,0h-2.62v-.83h2.62Zm-5.23,0H358v-.83h2.61Zm-5.22,0h-2.61v-.83h2.61Zm-5.22,0h-2.61v-.83h2.61Zm-5.22,0h-2.61v-.83h2.61Zm-5.22,0h-2.61v-.83h2.61Zm-5.22,0h-2.61v-.83h2.61Z" transform="translate(-309 -229)" style="fill:#656a73"/><polygon points="92.49 26.32 91.66 26.32 91.66 25.41 90.74 25.41 90.74 24.57 92.49 24.57 92.49 26.32" style="fill:#656a73"/><path d="M401.49,279.47h-.83v-2.41h.83Zm0-4.83h-.83v-2.41h.83Zm0-4.83h-.83V267.4h.83Zm0-4.83h-.83v-2.41h.83Zm0-4.83h-.83v-2.41h.83Z" transform="translate(-309 -229)" style="fill:#656a73"/><polygon points="92.49 54.64 90.74 54.64 90.74 53.8 91.66 53.8 91.66 52.89 92.49 52.89 92.49 54.64" style="fill:#656a73"/><path d="M397.13,283.64h-2.61v-.84h2.61Zm-5.22,0H389.3v-.84h2.61Zm-5.22,0h-2.61v-.84h2.61Zm-5.22,0h-2.61v-.84h2.61Zm-5.22,0h-2.61v-.84h2.61Zm-5.22,0h-2.61v-.84H371Zm-5.22,0h-2.62v-.84h2.62Zm-5.23,0H358v-.84h2.61Zm-5.22,0h-2.61v-.84h2.61Zm-5.22,0h-2.61v-.84h2.61Zm-5.22,0h-2.61v-.84h2.61Zm-5.22,0h-2.61v-.84h2.61Zm-5.22,0h-2.61v-.84h2.61Z" transform="translate(-309 -229)" style="fill:#656a73"/><polygon points="95.8 25.41 91.66 25.41 91.66 21.27 92.49 21.27 92.49 24.57 95.8 24.57 95.8 25.41" style="fill:#656a73"/><polygon points="92.49 57.94 91.66 57.94 91.66 53.8 95.8 53.8 95.8 54.64 92.49 54.64 92.49 57.94" style="fill:#656a73"/><polygon points="19.34 25.41 15.2 25.41 15.2 24.57 18.51 24.57 18.51 21.27 19.34 21.27 19.34 25.41" style="fill:#656a73"/><polygon points="19.34 57.94 18.51 57.94 18.51 54.64 15.2 54.64 15.2 53.8 19.34 53.8 19.34 57.94" style="fill:#656a73"/><polygon points="63.94 86.25 47.05 86.25 48.59 77.64 62.4 77.64 63.94 86.25" style="fill:#cccbca"/><path d="M377.46,316.51H351.53V316a.79.79,0,0,1,.79-.79h24.35a.8.8,0,0,1,.56.23.78.78,0,0,1,.23.56Z" transform="translate(-309 -229)" style="fill:#e6e5e5"/><path d="M394.91,301.07v4.09a1.49,1.49,0,0,1-1.49,1.48H335.57a1.49,1.49,0,0,1-1.48-1.48v-4.09Z" transform="translate(-309 -229)" style="fill:#e6e5e5"/><path d="M394.91,301.07V262.25a1.49,1.49,0,0,0-1.49-1.48H335.57a1.48,1.48,0,0,0-1.47,1.48v38.82Z" transform="translate(-309 -229)" style="fill:#353f49"/><rect x="28.16" y="34.84" width="54.66" height="34.16" style="fill:#ffdb79"/><path d="M351.61,251.73a1.39,1.39,0,0,1,1.41-1.39h23a1.4,1.4,0,0,1,1.4,1.39v34.62a1.4,1.4,0,0,1-1.4,1.4H353a1.4,1.4,0,0,1-1.41-1.4Z" transform="translate(-309 -229)" style="fill:#353f49"/><path d="M363.08,286.18a.62.62,0,0,1-.62-.62v-.16a.62.62,0,0,1,.62-.62h2.84a.63.63,0,0,1,.63.62v.16a.63.63,0,0,1-.63.62Z" transform="translate(-309 -229)" style="fill:#474f59"/><path d="M364.5,252.81a.65.65,0,1,1,.64-.65A.64.64,0,0,1,364.5,252.81Z" transform="translate(-309 -229)" style="fill:#474f59"/><path d="M364.5,252.43a.26.26,0,0,1-.26-.27.26.26,0,1,1,.52,0A.26.26,0,0,1,364.5,252.43Z" transform="translate(-309 -229)" style="fill:#353f49"/><rect x="44.07" y="24.99" width="22.86" height="29.23" style="fill:#fff"/><rect x="45.74" y="48.91" width="19.51" height="1.14" style="fill:#d9d8d7"/><rect x="45.74" y="46.41" width="19.51" height="1.14" style="fill:#d9d8d7"/><rect x="45.74" y="43.92" width="19.51" height="1.14" style="fill:#d9d8d7"/><rect x="45.74" y="51.41" width="19.51" height="1.14" style="fill:#d9d8d7"/><rect x="45.74" y="36.39" width="19.51" height="6.18" style="fill:#ffdb79"/><rect x="45.74" y="26.66" width="8.95" height="8.37" style="fill:#f77b55"/><rect x="56.31" y="26.66" width="8.95" height="8.37" style="fill:#f77b55"/><path d="M78.55,58.75H90.18a2,2,0,0,1,2,2V85.51a2,2,0,0,1-2,2H78.54a2,2,0,0,1-2-2V60.75A2,2,0,0,1,78.55,58.75Z" style="fill:#353f49"/><rect x="77.67" y="63.1" width="13.38" height="20.07" style="fill:#fff"/><rect x="78.7" y="80.01" width="11.33" height="0.67" style="fill:#d9d8d7"/><rect x="78.7" y="78.54" width="11.33" height="0.67" style="fill:#d9d8d7"/><rect x="78.7" y="77.08" width="11.33" height="0.67" style="fill:#d9d8d7"/><rect x="78.7" y="81.47" width="11.33" height="0.67" style="fill:#d9d8d7"/><rect x="78.7" y="64.12" width="11.33" height="8.45" style="fill:#f77b55"/><rect x="78.7" y="73.25" width="11.33" height="3.16" style="fill:#ffdb79"/><rect x="82.59" y="84.72" width="3.56" height="1.24" rx="0.54" ry="0.54" style="fill:#474f59"/><path d="M393.87,289.92a.5.5,0,0,1-.5.5.5.5,0,0,1-.51-.5.51.51,0,0,1,.51-.51A.5.5,0,0,1,393.87,289.92Z" transform="translate(-309 -229)" style="fill:#474f59"/><path d="M393.57,289.92a.2.2,0,0,1-.2.2.2.2,0,1,1,0-.4A.2.2,0,0,1,393.57,289.92Z" transform="translate(-309 -229)" style="fill:#353f49"/></svg>