<svg id="Layer_1" data-name="Layer 1" xmlns="http://www.w3.org/2000/svg" viewBox="0 0 200 200"><defs><style>.cls-1{fill:#f2f2f2;}.cls-2{fill:#fff;}.cls-3{fill:#474f59;}.cls-4{fill:#656a73;}.cls-5{fill:#cccbca;}.cls-6{fill:#e6e5e5;}.cls-7{fill:#353f49;}.cls-8{fill:#ffdb79;}.cls-9{fill:#d9d8d7;}.cls-10{fill:#f77b55;}</style></defs><title>adaptive-design-icon</title><rect class="cls-1" width="200" height="200"/><circle class="cls-2" cx="100" cy="100" r="65"/><path class="cls-3" d="M268.82,318.2l-3.35,8.59h1.84l.71-2h3.44l.75,2h1.88l-3.44-8.59Zm-.27,5.19,1.16-3.18,1.19,3.18Z" transform="translate(-220 -140)"/><path class="cls-3" d="M281.11,319.16a2.83,2.83,0,0,0-1.3-.79,6.08,6.08,0,0,0-1.63-.17H275v8.59h3.26a5.24,5.24,0,0,0,1.53-.18,2.88,2.88,0,0,0,1.22-.69,3.68,3.68,0,0,0,.92-1.51,5.52,5.52,0,0,0,.27-1.83,6.54,6.54,0,0,0-.28-2A3.91,3.91,0,0,0,281.11,319.16Zm-.87,4.92a1.85,1.85,0,0,1-.46.83,1.59,1.59,0,0,1-.7.35,4.36,4.36,0,0,1-1,.08h-1.3v-5.68h.78a7.36,7.36,0,0,1,1.42.08,1.63,1.63,0,0,1,.81.4,2,2,0,0,1,.49.83,5.11,5.11,0,0,1,.17,1.53A5.58,5.58,0,0,1,280.24,324.08Z" transform="translate(-220 -140)"/><path class="cls-3" d="M286.15,318.2l-3.35,8.59h1.84l.71-2h3.44l.75,2h1.88L288,318.2Zm-.26,5.19,1.16-3.18,1.18,3.18Z" transform="translate(-220 -140)"/><path class="cls-3" d="M297.19,318.33a10.53,10.53,0,0,0-2.06-.13h-2.79v8.59h1.74v-3.24h1.13a10.25,10.25,0,0,0,1.8-.12,2.58,2.58,0,0,0,.9-.41,2.35,2.35,0,0,0,.73-.85,2.79,2.79,0,0,0,.28-1.33,2.67,2.67,0,0,0-.49-1.67A2.31,2.31,0,0,0,297.19,318.33Zm-.25,3.21a1.14,1.14,0,0,1-.54.42,4.53,4.53,0,0,1-1.37.13h-.95v-2.43h.84a8.46,8.46,0,0,1,1.24,0,1.18,1.18,0,0,1,.7.38,1.16,1.16,0,0,1,.28.78A1.2,1.2,0,0,1,296.94,321.54Z" transform="translate(-220 -140)"/><polygon class="cls-3" points="79.73 179.66 82.28 179.66 82.28 186.79 84.02 186.79 84.02 179.66 86.56 179.66 86.56 178.2 79.73 178.2 79.73 179.66"/><rect class="cls-3" x="87.63" y="178.2" width="1.73" height="8.59"/><polygon class="cls-3" points="94.19 184.56 92.01 178.2 90.13 178.2 93.2 186.79 95.06 186.79 98.13 178.2 96.29 178.2 94.19 184.56"/><polygon class="cls-3" points="100.75 183.01 105.06 183.01 105.06 181.56 100.75 181.56 100.75 179.66 105.39 179.66 105.39 178.2 99.02 178.2 99.02 186.79 105.55 186.79 105.55 185.34 100.75 185.34 100.75 183.01"/><path class="cls-3" d="M336.45,319.16a2.78,2.78,0,0,0-1.3-.79,6.08,6.08,0,0,0-1.63-.17h-3.17v8.59h3.26a5.37,5.37,0,0,0,1.54-.18,3,3,0,0,0,1.22-.69,3.9,3.9,0,0,0,.92-1.51,5.81,5.81,0,0,0,.26-1.83,6.25,6.25,0,0,0-.28-2A3.77,3.77,0,0,0,336.45,319.16Zm-.87,4.92a1.94,1.94,0,0,1-.45.83,1.71,1.71,0,0,1-.7.35,4.51,4.51,0,0,1-1.05.08h-1.3v-5.68h.78a7.55,7.55,0,0,1,1.43.08,1.64,1.64,0,0,1,.8.4,2,2,0,0,1,.49.83,5.06,5.06,0,0,1,.18,1.53A5.53,5.53,0,0,1,335.58,324.08Z" transform="translate(-220 -140)"/><polygon class="cls-3" points="120.75 183.01 125.07 183.01 125.07 181.56 120.75 181.56 120.75 179.66 125.39 179.66 125.39 178.2 119.02 178.2 119.02 186.79 125.55 186.79 125.55 185.34 120.75 185.34 120.75 183.01"/><path class="cls-3" d="M352.28,322.05a8.68,8.68,0,0,0-1.88-.62,4.69,4.69,0,0,1-1.59-.57.68.68,0,0,1-.26-.53.61.61,0,0,1,.28-.53,2,2,0,0,1,1.18-.31,1.76,1.76,0,0,1,1.1.29,1.51,1.51,0,0,1,.48,1l1.73-.07a2.52,2.52,0,0,0-.86-1.9,3.61,3.61,0,0,0-2.43-.7,4.49,4.49,0,0,0-1.69.29,2.28,2.28,0,0,0-1.07.87,2.23,2.23,0,0,0,.42,3,4.58,4.58,0,0,0,1.95.85c.73.18,1.19.3,1.39.38a1.33,1.33,0,0,1,.63.37.81.81,0,0,1,.17.52,1.08,1.08,0,0,1-.42.83,2,2,0,0,1-1.26.35,1.85,1.85,0,0,1-1.26-.4,2,2,0,0,1-.62-1.25l-1.69.17a3.26,3.26,0,0,0,1.05,2.19,3.71,3.71,0,0,0,2.5.75,4.84,4.84,0,0,0,1.87-.31,2.5,2.5,0,0,0,1.16-1,2.56,2.56,0,0,0,.41-1.38,2.65,2.65,0,0,0-.34-1.37A2.42,2.42,0,0,0,352.28,322.05Z" transform="translate(-220 -140)"/><rect class="cls-3" x="134.97" y="178.2" width="1.73" height="8.59"/><path class="cls-3" d="M362.36,323.63h2v1.09a3.37,3.37,0,0,1-.94.52,3,3,0,0,1-1.09.22,2.27,2.27,0,0,1-1.78-.77,3.37,3.37,0,0,1-.68-2.29,3,3,0,0,1,.67-2.14,2.36,2.36,0,0,1,1.81-.72,2.08,2.08,0,0,1,1.25.36,1.86,1.86,0,0,1,.68,1l1.72-.32a3,3,0,0,0-1.15-1.85,4.1,4.1,0,0,0-2.5-.67,4.53,4.53,0,0,0-2.06.42,3.78,3.78,0,0,0-1.64,1.6,4.91,4.91,0,0,0-.57,2.39,5.22,5.22,0,0,0,.51,2.29,3.5,3.5,0,0,0,1.5,1.61,4.67,4.67,0,0,0,2.35.57,5.93,5.93,0,0,0,2.1-.4,4.84,4.84,0,0,0,1.58-.93v-3.42h-3.74Z" transform="translate(-220 -140)"/><polygon class="cls-3" points="152.92 178.2 152.92 183.94 149.4 178.2 147.71 178.2 147.71 186.79 149.32 186.79 149.32 181.19 152.79 186.79 154.53 186.79 154.53 178.2 152.92 178.2"/><polygon class="cls-4" points="36.5 98.44 33.35 98.44 33.35 95.3 34.85 95.3 34.85 96.94 36.5 96.94 36.5 98.44"/><path class="cls-4" d="M254.85,230.94h-1.5v-4.35h1.5Zm0-8.7h-1.5v-4.35h1.5Zm0-8.7h-1.5v-4.36h1.5Zm0-8.71h-1.5v-4.35h1.5Zm0-8.7h-1.5v-4.35h1.5Z" transform="translate(-220 -140)"/><polygon class="cls-4" points="34.85 47.42 33.35 47.42 33.35 44.27 36.5 44.27 36.5 45.77 34.85 45.77 34.85 47.42"/><path class="cls-4" d="M378.8,185.77h-4.71v-1.5h4.71Zm-9.41,0h-4.7v-1.5h4.7Zm-9.41,0h-4.7v-1.5H360Zm-9.4,0h-4.71v-1.5h4.71Zm-9.41,0h-4.71v-1.5h4.71Zm-9.41,0h-4.7v-1.5h4.7Zm-9.41,0h-4.7v-1.5h4.7Zm-9.41,0h-4.7v-1.5h4.7Zm-9.4,0h-4.71v-1.5h4.71Zm-9.41,0h-4.7v-1.5h4.7Zm-9.41,0H280v-1.5h4.7Zm-9.41,0h-4.7v-1.5h4.7Zm-9.4,0H261.2v-1.5h4.71Z" transform="translate(-220 -140)"/><polygon class="cls-4" points="166.65 47.42 165.15 47.42 165.15 45.77 163.5 45.77 163.5 44.27 166.65 44.27 166.65 47.42"/><path class="cls-4" d="M386.65,230.94h-1.5v-4.35h1.5Zm0-8.7h-1.5v-4.35h1.5Zm0-8.7h-1.5v-4.36h1.5Zm0-8.71h-1.5v-4.35h1.5Zm0-8.7h-1.5v-4.35h1.5Z" transform="translate(-220 -140)"/><polygon class="cls-4" points="166.65 98.44 163.5 98.44 163.5 96.94 165.15 96.94 165.15 95.3 166.65 95.3 166.65 98.44"/><path class="cls-4" d="M378.8,238.44h-4.71v-1.5h4.71Zm-9.41,0h-4.7v-1.5h4.7Zm-9.41,0h-4.7v-1.5H360Zm-9.41,0h-4.7v-1.5h4.7Zm-9.4,0h-4.71v-1.5h4.71Zm-9.41,0h-4.7v-1.5h4.7Zm-9.41,0h-4.7v-1.5h4.7Zm-9.41,0h-4.7v-1.5h4.7Zm-9.4,0h-4.71v-1.5h4.71Zm-9.41,0h-4.71v-1.5h4.71Zm-9.41,0H280v-1.5h4.7Zm-9.41,0h-4.7v-1.5h4.7Zm-9.4,0H261.2v-1.5h4.71Z" transform="translate(-220 -140)"/><polygon class="cls-4" points="172.6 45.77 165.15 45.77 165.15 38.32 166.65 38.32 166.65 44.27 172.6 44.27 172.6 45.77"/><polygon class="cls-4" points="166.65 104.4 165.15 104.4 165.15 96.94 172.6 96.94 172.6 98.44 166.65 98.44 166.65 104.4"/><polygon class="cls-4" points="34.85 45.77 27.39 45.77 27.39 44.27 33.35 44.27 33.35 38.32 34.85 38.32 34.85 45.77"/><polygon class="cls-4" points="34.85 104.4 33.35 104.4 33.35 98.44 27.39 98.44 27.39 96.94 34.85 96.94 34.85 104.4"/><polygon class="cls-5" points="115.21 155.4 84.78 155.4 87.54 139.89 112.44 139.89 115.21 155.4"/><path class="cls-6" d="M343.36,297.68H296.63v-.85a1.43,1.43,0,0,1,1.43-1.43h43.87a1.42,1.42,0,0,1,1,.42,1.43,1.43,0,0,1,.42,1Z" transform="translate(-220 -140)"/><path class="cls-6" d="M374.78,269.86v7.36a2.67,2.67,0,0,1-2.66,2.67H267.88a2.67,2.67,0,0,1-2.66-2.67v-7.36Z" transform="translate(-220 -140)"/><path class="cls-7" d="M374.78,269.86v-70a2.68,2.68,0,0,0-2.66-2.67H267.88a2.68,2.68,0,0,0-2.66,2.67v70Z" transform="translate(-220 -140)"/><rect class="cls-8" x="50.75" y="62.77" width="98.49" height="61.55"/><path class="cls-7" d="M296.77,181a2.53,2.53,0,0,1,2.54-2.52H340.7a2.52,2.52,0,0,1,2.53,2.52v62.37a2.52,2.52,0,0,1-2.53,2.52H299.31a2.53,2.53,0,0,1-2.54-2.52Z" transform="translate(-220 -140)"/><path class="cls-3" d="M317.44,243a1.12,1.12,0,0,1-1.12-1.13v-.27a1.12,1.12,0,0,1,1.12-1.12h5.12a1.13,1.13,0,0,1,1.13,1.12v.27a1.13,1.13,0,0,1-1.13,1.13Z" transform="translate(-220 -140)"/><path class="cls-3" d="M320,182.89a1.16,1.16,0,0,1,0-2.32,1.16,1.16,0,1,1,0,2.32Z" transform="translate(-220 -140)"/><path class="cls-7" d="M320,182.21a.48.48,0,0,1,0-1,.48.48,0,1,1,0,1Z" transform="translate(-220 -140)"/><rect class="cls-2" x="79.4" y="45.02" width="41.19" height="52.67"/><rect class="cls-9" x="82.42" y="88.13" width="35.15" height="2.06"/><rect class="cls-9" x="82.42" y="83.63" width="35.15" height="2.06"/><rect class="cls-9" x="82.42" y="79.13" width="35.15" height="2.05"/><rect class="cls-9" x="82.42" y="92.62" width="35.15" height="2.06"/><rect class="cls-8" x="82.42" y="65.56" width="35.15" height="11.13"/><rect class="cls-10" x="82.42" y="48.04" width="16.12" height="15.08"/><rect class="cls-10" x="101.45" y="48.04" width="16.12" height="15.08"/><path class="cls-7" d="M382.5,245.85h-21a3.62,3.62,0,0,0-3.61,3.62v44.6a3.62,3.62,0,0,0,3.61,3.61h21a3.61,3.61,0,0,0,3.61-3.61v-44.6A3.62,3.62,0,0,0,382.5,245.85Z" transform="translate(-220 -140)"/><rect class="cls-2" x="139.95" y="113.69" width="24.11" height="36.17"/><rect class="cls-9" x="141.8" y="144.16" width="20.41" height="1.21"/><rect class="cls-9" x="141.8" y="141.52" width="20.41" height="1.21"/><rect class="cls-9" x="141.8" y="138.88" width="20.41" height="1.21"/><rect class="cls-9" x="141.8" y="146.79" width="20.41" height="1.2"/><rect class="cls-10" x="141.8" y="115.54" width="20.41" height="15.22"/><rect class="cls-8" x="141.8" y="131.98" width="20.41" height="5.69"/><rect class="cls-3" x="148.81" y="152.65" width="6.41" height="2.23" rx="0.97" ry="0.97"/><path class="cls-3" d="M372.92,249.77a.91.91,0,0,1-1.82,0,.91.91,0,1,1,1.82,0Z" transform="translate(-220 -140)"/><path class="cls-7" d="M372.38,249.77a.37.37,0,0,1-.37.36.37.37,0,0,1,0-.73A.38.38,0,0,1,372.38,249.77Z" transform="translate(-220 -140)"/></svg>