<svg id="Layer_1" data-name="Layer 1" xmlns="http://www.w3.org/2000/svg" width="111" height="111" viewBox="0 0 111 111"><title>adaptive-design-icon-2</title><rect width="111" height="111" style="fill:#f2f2f2"/><circle cx="55.5" cy="55.5" r="36.08" style="fill:#fff"/><path d="M27.09,98.9l-1.85,4.77h1l.39-1.08h1.91l.41,1.08H30L28.11,98.9ZM27,101.78l.64-1.77.66,1.77Z" style="fill:#474f59"/><path d="M33.91,99.43a1.67,1.67,0,0,0-.72-.44,3.4,3.4,0,0,0-.9-.09H30.53v4.77h1.81a2.78,2.78,0,0,0,.85-.1,1.71,1.71,0,0,0,.68-.38,2.2,2.2,0,0,0,.51-.84,3.15,3.15,0,0,0,.14-1,3.68,3.68,0,0,0-.15-1.13A2.19,2.19,0,0,0,33.91,99.43Zm-.48,2.73a.94.94,0,0,1-.25.46.81.81,0,0,1-.39.2,2.56,2.56,0,0,1-.58.05h-.72V99.71h.43a4.48,4.48,0,0,1,.79,0,1,1,0,0,1,.45.23,1,1,0,0,1,.27.46,2.69,2.69,0,0,1,.1.85A2.88,2.88,0,0,1,33.43,102.16Z" style="fill:#474f59"/><path d="M36.71,98.9l-1.85,4.77h1l.39-1.08h1.91l.41,1.08h1L37.73,98.9Zm-.14,2.88.64-1.77.66,1.77Z" style="fill:#474f59"/><path d="M42.84,99a6.3,6.3,0,0,0-1.14-.07H40.15v4.77h1v-1.8h.63a5.08,5.08,0,0,0,1-.07,1.37,1.37,0,0,0,.5-.22,1.32,1.32,0,0,0,.4-.47,1.53,1.53,0,0,0,.16-.74,1.51,1.51,0,0,0-.27-.93A1.34,1.34,0,0,0,42.84,99Zm-.14,1.78a.6.6,0,0,1-.3.24,2.53,2.53,0,0,1-.76.07h-.53V99.71h.47a4.88,4.88,0,0,1,.69,0,.68.68,0,0,1,.39.21.68.68,0,0,1,0,.8Z" style="fill:#474f59"/><polygon points="44.25 99.71 45.67 99.71 45.67 103.67 46.63 103.67 46.63 99.71 48.04 99.71 48.04 98.9 44.25 98.9 44.25 99.71" style="fill:#474f59"/><rect x="48.63" y="98.9" width="0.96" height="4.77" style="fill:#474f59"/><polygon points="52.27 102.43 51.07 98.9 50.02 98.9 51.73 103.67 52.76 103.67 54.46 98.9 53.44 98.9 52.27 102.43" style="fill:#474f59"/><polygon points="55.92 101.57 58.31 101.57 58.31 100.77 55.92 100.77 55.92 99.71 58.49 99.71 58.49 98.9 54.95 98.9 54.95 103.67 58.58 103.67 58.58 102.87 55.92 102.87 55.92 101.57" style="fill:#474f59"/><path d="M64.63,99.43a1.67,1.67,0,0,0-.72-.44A3.49,3.49,0,0,0,63,98.9H61.24v4.77h1.81a2.89,2.89,0,0,0,.86-.1,1.66,1.66,0,0,0,.67-.38,2.2,2.2,0,0,0,.51-.84,3.13,3.13,0,0,0,.15-1,3.38,3.38,0,0,0-.16-1.13A2,2,0,0,0,64.63,99.43Zm-.48,2.73a.94.94,0,0,1-.26.46.82.82,0,0,1-.38.2,2.66,2.66,0,0,1-.59.05h-.71V99.71h.43a4.63,4.63,0,0,1,.79,0,.89.89,0,0,1,.44.23,1.09,1.09,0,0,1,.28.46,3.09,3.09,0,0,1,.09.85A3.31,3.31,0,0,1,64.15,102.16Z" style="fill:#474f59"/><polygon points="67.02 101.57 69.41 101.57 69.41 100.77 67.02 100.77 67.02 99.71 69.59 99.71 69.59 98.9 66.06 98.9 66.06 103.67 69.68 103.67 69.68 102.87 67.02 102.87 67.02 101.57" style="fill:#474f59"/><path d="M73.41,101a4.4,4.4,0,0,0-1-.35,2.63,2.63,0,0,1-.88-.31.35.35,0,0,1-.14-.29.34.34,0,0,1,.15-.3,1.15,1.15,0,0,1,.66-.17,1,1,0,0,1,.61.16.83.83,0,0,1,.26.53l1,0a1.4,1.4,0,0,0-.47-1.05,2.05,2.05,0,0,0-1.35-.39,2.39,2.39,0,0,0-.94.17,1.31,1.31,0,0,0-.6.48,1.28,1.28,0,0,0-.2.68,1.21,1.21,0,0,0,.44,1,2.55,2.55,0,0,0,1.08.47c.4.1.66.17.77.21a.81.81,0,0,1,.35.21.45.45,0,0,1,.1.28.57.57,0,0,1-.24.46,1,1,0,0,1-.7.2,1,1,0,0,1-.7-.22,1.19,1.19,0,0,1-.34-.69l-.94.09a1.88,1.88,0,0,0,.58,1.22,2.13,2.13,0,0,0,1.39.41,2.63,2.63,0,0,0,1-.17,1.35,1.35,0,0,0,.64-.53,1.44,1.44,0,0,0,.23-.77,1.41,1.41,0,0,0-.19-.76A1.37,1.37,0,0,0,73.41,101Z" style="fill:#474f59"/><rect x="74.91" y="98.9" width="0.96" height="4.77" style="fill:#474f59"/><path d="M79,101.92h1.1v.6a2.14,2.14,0,0,1-.52.29,1.66,1.66,0,0,1-.61.12,1.25,1.25,0,0,1-1-.43,1.85,1.85,0,0,1-.37-1.27A1.7,1.7,0,0,1,78,100a1.32,1.32,0,0,1,1-.4,1.14,1.14,0,0,1,.7.21,1,1,0,0,1,.38.55l1-.18a1.67,1.67,0,0,0-.64-1A2.34,2.34,0,0,0,79,98.82a2.46,2.46,0,0,0-1.14.24,2.06,2.06,0,0,0-.91.89,2.69,2.69,0,0,0-.32,1.32,3,3,0,0,0,.28,1.27,2,2,0,0,0,.84.9,2.6,2.6,0,0,0,1.3.31,3.19,3.19,0,0,0,1.17-.22,2.53,2.53,0,0,0,.87-.52v-1.9H79Z" style="fill:#474f59"/><polygon points="84.87 98.9 84.87 102.09 82.92 98.9 81.98 98.9 81.98 103.67 82.88 103.67 82.88 100.56 84.8 103.67 85.76 103.67 85.76 98.9 84.87 98.9" style="fill:#474f59"/><polygon points="20.26 54.64 18.51 54.64 18.51 52.89 19.34 52.89 19.34 53.8 20.26 53.8 20.26 54.64" style="fill:#656a73"/><path d="M19.34,50.47h-.83V48.06h.83Zm0-4.83h-.83V43.23h.83Zm0-4.83h-.83V38.4h.83Zm0-4.83h-.83V33.57h.83Zm0-4.83h-.83V28.74h.83Z" style="fill:#656a73"/><polygon points="19.34 26.32 18.51 26.32 18.51 24.57 20.26 24.57 20.26 25.41 19.34 25.41 19.34 26.32" style="fill:#656a73"/><path d="M88.13,25.4H85.52v-.83h2.61Zm-5.22,0H80.3v-.83h2.61Zm-5.22,0H75.08v-.83h2.61Zm-5.22,0H69.86v-.83h2.61Zm-5.22,0H64.64v-.83h2.61ZM62,25.4H59.42v-.83H62Zm-5.22,0H54.19v-.83h2.62Zm-5.23,0H49v-.83h2.61Zm-5.22,0H43.75v-.83h2.61Zm-5.22,0H38.53v-.83h2.61Zm-5.22,0H33.31v-.83h2.61Zm-5.22,0H28.09v-.83H30.7Zm-5.22,0H22.87v-.83h2.61Z" style="fill:#656a73"/><polygon points="92.49 26.32 91.66 26.32 91.66 25.41 90.74 25.41 90.74 24.57 92.49 24.57 92.49 26.32" style="fill:#656a73"/><path d="M92.49,50.47h-.83V48.06h.83Zm0-4.83h-.83V43.23h.83Zm0-4.83h-.83V38.4h.83Zm0-4.83h-.83V33.57h.83Zm0-4.83h-.83V28.74h.83Z" style="fill:#656a73"/><polygon points="92.49 54.64 90.74 54.64 90.74 53.8 91.66 53.8 91.66 52.89 92.49 52.89 92.49 54.64" style="fill:#656a73"/><path d="M88.13,54.64H85.52V53.8h2.61Zm-5.22,0H80.3V53.8h2.61Zm-5.22,0H75.08V53.8h2.61Zm-5.22,0H69.86V53.8h2.61Zm-5.22,0H64.64V53.8h2.61Zm-5.22,0H59.42V53.8H62Zm-5.22,0H54.19V53.8h2.62Zm-5.23,0H49V53.8h2.61Zm-5.22,0H43.75V53.8h2.61Zm-5.22,0H38.53V53.8h2.61Zm-5.22,0H33.31V53.8h2.61Zm-5.22,0H28.09V53.8H30.7Zm-5.22,0H22.87V53.8h2.61Z" style="fill:#656a73"/><polygon points="95.8 25.41 91.66 25.41 91.66 21.27 92.49 21.27 92.49 24.57 95.8 24.57 95.8 25.41" style="fill:#656a73"/><polygon points="92.49 57.94 91.66 57.94 91.66 53.8 95.8 53.8 95.8 54.64 92.49 54.64 92.49 57.94" style="fill:#656a73"/><polygon points="19.34 25.41 15.2 25.41 15.2 24.57 18.51 24.57 18.51 21.27 19.34 21.27 19.34 25.41" style="fill:#656a73"/><polygon points="19.34 57.94 18.51 57.94 18.51 54.64 15.2 54.64 15.2 53.8 19.34 53.8 19.34 57.94" style="fill:#656a73"/><polygon points="63.94 86.25 47.05 86.25 48.59 77.64 62.4 77.64 63.94 86.25" style="fill:#cccbca"/><path d="M68.46,87.51H42.53V87a.79.79,0,0,1,.79-.79H67.67a.8.8,0,0,1,.56.23.78.78,0,0,1,.23.56Z" style="fill:#e6e5e5"/><path d="M85.91,72.07v4.09a1.49,1.49,0,0,1-1.49,1.48H26.57a1.49,1.49,0,0,1-1.48-1.48V72.07Z" style="fill:#e6e5e5"/><path d="M85.91,72.07V33.25a1.49,1.49,0,0,0-1.49-1.48H26.57a1.48,1.48,0,0,0-1.47,1.48V72.07Z" style="fill:#353f49"/><rect x="28.16" y="34.84" width="54.66" height="34.16" style="fill:#ffdb79"/><path d="M42.61,22.73A1.39,1.39,0,0,1,44,21.34H67a1.4,1.4,0,0,1,1.4,1.39V57.35a1.4,1.4,0,0,1-1.4,1.4H44a1.4,1.4,0,0,1-1.41-1.4Z" style="fill:#353f49"/><path d="M54.08,57.18a.62.62,0,0,1-.62-.62V56.4a.62.62,0,0,1,.62-.62h2.84a.63.63,0,0,1,.63.62v.16a.63.63,0,0,1-.63.62Z" style="fill:#474f59"/><path d="M55.5,23.81a.65.65,0,1,1,.64-.65A.64.64,0,0,1,55.5,23.81Z" style="fill:#474f59"/><path d="M55.5,23.43a.26.26,0,0,1-.26-.27.26.26,0,1,1,.52,0A.26.26,0,0,1,55.5,23.43Z" style="fill:#353f49"/><rect x="44.07" y="24.99" width="22.86" height="29.23" style="fill:#fff"/><rect x="45.74" y="48.91" width="19.51" height="1.14" style="fill:#d9d8d7"/><rect x="45.74" y="46.41" width="19.51" height="1.14" style="fill:#d9d8d7"/><rect x="45.74" y="43.92" width="19.51" height="1.14" style="fill:#d9d8d7"/><rect x="45.74" y="51.41" width="19.51" height="1.14" style="fill:#d9d8d7"/><rect x="45.74" y="36.39" width="19.51" height="6.18" style="fill:#ffdb79"/><rect x="45.74" y="26.66" width="8.95" height="8.37" style="fill:#f77b55"/><rect x="56.31" y="26.66" width="8.95" height="8.37" style="fill:#f77b55"/><path d="M78.55,58.75H90.18a2,2,0,0,1,2,2V85.51a2,2,0,0,1-2,2H78.54a2,2,0,0,1-2-2V60.75A2,2,0,0,1,78.55,58.75Z" style="fill:#353f49"/><rect x="77.67" y="63.1" width="13.38" height="20.07" style="fill:#fff"/><rect x="78.7" y="80.01" width="11.33" height="0.67" style="fill:#d9d8d7"/><rect x="78.7" y="78.54" width="11.33" height="0.67" style="fill:#d9d8d7"/><rect x="78.7" y="77.08" width="11.33" height="0.67" style="fill:#d9d8d7"/><rect x="78.7" y="81.47" width="11.33" height="0.67" style="fill:#d9d8d7"/><rect x="78.7" y="64.12" width="11.33" height="8.45" style="fill:#f77b55"/><rect x="78.7" y="73.25" width="11.33" height="3.16" style="fill:#ffdb79"/><rect x="82.59" y="84.72" width="3.56" height="1.24" rx="0.54" ry="0.54" style="fill:#474f59"/><path d="M84.87,60.92a.5.5,0,0,1-.5.5.5.5,0,0,1-.51-.5.51.51,0,0,1,.51-.51A.5.5,0,0,1,84.87,60.92Z" style="fill:#474f59"/><path d="M84.57,60.92a.2.2,0,0,1-.2.2.2.2,0,1,1,0-.4A.2.2,0,0,1,84.57,60.92Z" style="fill:#353f49"/></svg>