<?xml version="1.0" encoding="utf-8"?>
<!-- Generator: Adobe Illustrator 22.0.1, SVG Export Plug-In . SVG Version: 6.00 Build 0)  -->
<svg version="1.1" id="Layer_1" xmlns="http://www.w3.org/2000/svg" xmlns:xlink="http://www.w3.org/1999/xlink" x="0px" y="0px"
	 viewBox="0 0 111 111" style="enable-background:new 0 0 111 111;" xml:space="preserve">
<style type="text/css">
	.st0{fill:#92DEEB;fill-opacity:0;}
	.st1{fill:#ADECF7;}
	.st2{fill:#474F59;}
	.st3{fill:#CCCBCA;}
	.st4{fill:#232E38;}
	.st5{fill:#FFFFFF;}
	.st6{fill:#F77B55;}
	.st7{fill:#353F49;}
</style>
<title>coding-icon-transparent-background</title>
<polyline class="st0" points="0,111 0,0 111,0 111,111 "/>
<circle class="st1" cx="55.5" cy="55.5" r="36.1"/>
<rect x="23.5" y="31.2" class="st2" width="38.7" height="52.2"/>
<rect x="27.7" y="35.6" class="st3" width="7.9" height="0.8"/>
<rect x="27.7" y="41.9" class="st3" width="2.2" height="0.8"/>
<rect x="37" y="35.6" class="st3" width="3.1" height="0.8"/>
<rect x="30.5" y="41.9" class="st3" width="8" height="0.8"/>
<rect x="29.9" y="37.8" class="st3" width="3.5" height="0.8"/>
<rect x="29.9" y="48.4" class="st3" width="3.5" height="0.8"/>
<rect x="27.7" y="61.1" class="st3" width="5.8" height="0.8"/>
<rect x="29.9" y="50.5" class="st3" width="1.5" height="0.8"/>
<rect x="34.3" y="48.4" class="st3" width="9.3" height="0.8"/>
<rect x="33.7" y="54.8" class="st3" width="3.2" height="0.8"/>
<rect x="31.8" y="78.2" class="st3" width="3.2" height="0.8"/>
<rect x="37.8" y="54.8" class="st3" width="5.2" height="0.8"/>
<rect x="43.8" y="63.3" class="st3" width="2.7" height="0.8"/>
<rect x="34.4" y="73.9" class="st3" width="6.3" height="0.8"/>
<rect x="36.4" y="78.2" class="st3" width="7.3" height="0.8"/>
<rect x="49.6" y="67.6" class="st3" width="2.7" height="0.8"/>
<rect x="44.3" y="54.8" class="st3" width="6.3" height="0.8"/>
<rect x="44.6" y="48.4" class="st3" width="6.7" height="0.8"/>
<rect x="52.6" y="48.4" class="st3" width="4.1" height="0.8"/>
<rect x="29.9" y="44.1" class="st3" width="5.3" height="0.8"/>
<rect x="29.9" y="46.2" class="st3" width="7.5" height="0.8"/>
<rect x="31.9" y="50.5" class="st3" width="8.6" height="0.8"/>
<rect x="29.9" y="65.4" class="st3" width="8.6" height="0.8"/>
<rect x="33.1" y="67.6" class="st3" width="6.3" height="0.8"/>
<rect x="38" y="76" class="st3" width="16.7" height="0.8"/>
<rect x="46" y="78.2" class="st3" width="3.7" height="0.8"/>
<rect x="40.4" y="67.6" class="st3" width="8.2" height="0.8"/>
<rect x="43" y="73.9" class="st3" width="8.2" height="0.8"/>
<rect x="31.9" y="52.7" class="st3" width="2.8" height="0.8"/>
<rect x="31.9" y="57" class="st3" width="3" height="0.8"/>
<rect x="29.9" y="63.3" class="st3" width="12.8" height="0.8"/>
<rect x="29.9" y="67.6" class="st3" width="2" height="0.8"/>
<rect x="27.7" y="73.9" class="st3" width="5.7" height="0.8"/>
<rect x="29.9" y="76" class="st3" width="6.5" height="0.8"/>
<rect x="35.6" y="52.7" class="st3" width="16.8" height="0.8"/>
<rect x="31.7" y="69.7" class="st3" width="5.4" height="0.8"/>
<rect x="38.9" y="69.7" class="st3" width="14.8" height="0.8"/>
<rect x="41.3" y="50.5" class="st3" width="1.5" height="0.8"/>
<rect x="44" y="50.5" class="st3" width="2.9" height="0.8"/>
<rect x="38.2" y="46.2" class="st3" width="7.5" height="0.8"/>
<rect x="46.2" y="46.2" class="st3" width="6.2" height="0.8"/>
<rect x="54.6" y="46.2" class="st3" width="3.3" height="0.8"/>
<rect x="36.9" y="44.1" class="st3" width="8.1" height="0.8"/>
<rect x="34.8" y="37.8" class="st3" width="8" height="0.8"/>
<rect x="23.5" y="27" class="st4" width="38.7" height="4.2"/>
<path class="st5" d="M84.1,56.9v29.4c0.1,2.1-1.5,3.9-3.6,4c-2.1,0.1-3.9-1.5-4-3.6c0-0.1,0-0.3,0-0.4V50.5c0-2.4-2-4.4-4.4-4.4
	c-2.4,0-4.4,2-4.4,4.4c0,0,0,0,0,0v8.6h0.6v-8.6c-0.1-2.1,1.5-3.9,3.6-4c2.1-0.1,3.9,1.5,4,3.6c0,0.1,0,0.3,0,0.4v35.8
	c0,2.4,2,4.4,4.4,4.4c2.4,0,4.4-2,4.4-4.4V56.9H84.1z"/>
<rect x="67.2" y="59.2" class="st5" width="1.5" height="2.8"/>
<rect x="83.6" y="50.9" class="st3" width="1.5" height="1.8"/>
<rect x="83.2" y="52.7" class="st5" width="2.4" height="4.2"/>
<rect x="40.1" y="62" class="st3" width="55.6" height="21.5"/>
<rect x="42" y="63.8" class="st5" width="2.8" height="2.8"/>
<rect x="87.5" y="67.4" class="st5" width="2.8" height="2.8"/>
<rect x="83.9" y="67.4" class="st5" width="2.8" height="2.8"/>
<rect x="80.2" y="67.4" class="st5" width="2.8" height="2.8"/>
<rect x="76.6" y="67.4" class="st5" width="2.8" height="2.8"/>
<rect x="72.9" y="67.4" class="st5" width="2.8" height="2.8"/>
<rect x="69.3" y="67.4" class="st5" width="2.8" height="2.8"/>
<rect x="65.6" y="67.4" class="st5" width="2.8" height="2.8"/>
<rect x="62" y="67.4" class="st5" width="2.8" height="2.8"/>
<rect x="58.4" y="67.4" class="st5" width="2.8" height="2.8"/>
<rect x="54.7" y="67.4" class="st5" width="2.8" height="2.8"/>
<rect x="51.1" y="67.4" class="st5" width="2.8" height="2.8"/>
<rect x="47.4" y="67.4" class="st5" width="2.8" height="2.8"/>
<rect x="48.3" y="71.1" class="st5" width="2.8" height="2.8"/>
<rect x="46.5" y="74.7" class="st5" width="2.8" height="2.8"/>
<rect x="50.2" y="74.7" class="st5" width="2.8" height="2.8"/>
<rect x="53.8" y="74.7" class="st5" width="2.8" height="2.8"/>
<rect x="57.5" y="74.7" class="st5" width="2.8" height="2.8"/>
<rect x="61.1" y="74.7" class="st5" width="2.8" height="2.8"/>
<rect x="64.7" y="74.7" class="st5" width="2.8" height="2.8"/>
<rect x="68.4" y="74.7" class="st5" width="2.8" height="2.8"/>
<rect x="72" y="74.7" class="st5" width="2.8" height="2.8"/>
<rect x="75.7" y="74.7" class="st5" width="2.8" height="2.8"/>
<rect x="79.3" y="74.7" class="st5" width="2.8" height="2.8"/>
<rect x="82.9" y="74.7" class="st5" width="2.8" height="2.8"/>
<rect x="86.6" y="74.7" class="st5" width="7.3" height="2.8"/>
<rect x="52" y="71.1" class="st5" width="2.8" height="2.8"/>
<rect x="55.6" y="71.1" class="st5" width="2.8" height="2.8"/>
<rect x="59.2" y="71.1" class="st5" width="2.8" height="2.8"/>
<rect x="62.9" y="71.1" class="st5" width="2.8" height="2.8"/>
<rect x="66.5" y="71.1" class="st5" width="2.8" height="2.8"/>
<rect x="70.2" y="71.1" class="st5" width="2.8" height="2.8"/>
<rect x="73.8" y="71.1" class="st5" width="2.8" height="2.8"/>
<rect x="77.4" y="71.1" class="st5" width="2.8" height="2.8"/>
<rect x="81.1" y="71.1" class="st5" width="2.8" height="2.8"/>
<rect x="84.7" y="71.1" class="st5" width="2.8" height="2.8"/>
<rect x="88.4" y="71.1" class="st5" width="2.8" height="2.8"/>
<rect x="45.6" y="63.8" class="st5" width="2.8" height="2.8"/>
<rect x="49.3" y="63.8" class="st5" width="2.8" height="2.8"/>
<rect x="52.9" y="63.8" class="st5" width="2.8" height="2.8"/>
<rect x="56.5" y="63.8" class="st5" width="2.8" height="2.8"/>
<rect x="60.2" y="63.8" class="st5" width="2.8" height="2.8"/>
<rect x="63.8" y="63.8" class="st5" width="2.8" height="2.8"/>
<rect x="67.5" y="63.8" class="st5" width="2.8" height="2.8"/>
<rect x="71.1" y="63.8" class="st5" width="2.8" height="2.8"/>
<rect x="74.7" y="63.8" class="st5" width="2.8" height="2.8"/>
<rect x="78.4" y="63.8" class="st5" width="2.8" height="2.8"/>
<rect x="82" y="63.8" class="st5" width="2.8" height="2.8"/>
<rect x="85.7" y="63.8" class="st5" width="2.8" height="2.8"/>
<rect x="89.3" y="63.8" class="st5" width="4.6" height="2.8"/>
<rect x="42" y="67.4" class="st5" width="4.6" height="2.8"/>
<rect x="42" y="71.1" class="st5" width="5.5" height="2.8"/>
<rect x="42" y="74.7" class="st5" width="3.7" height="2.8"/>
<rect x="42" y="78.4" class="st5" width="2.8" height="3.2"/>
<rect x="45.6" y="78.4" class="st5" width="2.8" height="3.2"/>
<rect x="49.2" y="78.4" class="st5" width="2.8" height="3.2"/>
<rect x="52.9" y="78.4" class="st5" width="3.7" height="3.2"/>
<rect x="57.5" y="78.4" class="st5" width="17.3" height="3.2"/>
<rect x="75.7" y="78.4" class="st5" width="3.7" height="3.2"/>
<rect x="80.2" y="78.4" class="st5" width="2.8" height="3.2"/>
<rect x="83.9" y="80.1" class="st5" width="2.8" height="1.5"/>
<rect x="87.5" y="80.2" class="st5" width="2.8" height="1.4"/>
<rect x="87.5" y="78.3" class="st5" width="2.8" height="1.4"/>
<rect x="91.1" y="80.1" class="st5" width="2.8" height="1.5"/>
<polygon class="st5" points="92,73.8 92,70.2 91.1,70.2 91.1,67.4 93.9,67.4 93.9,73.8 "/>
<rect x="47.3" y="20.3" class="st6" width="22.5" height="13.5"/>
<path class="st5" d="M51.9,28.8v-3.6h0.7v1.4H54v-1.4h0.7v3.6H54v-1.6h-1.4v1.6H51.9z"/>
<path class="st5" d="M56.3,28.8v-3h-1.1v-0.6h2.9v0.6H57v3H56.3z"/>
<path class="st5" d="M58.6,28.8v-3.6h1.1l0.6,2.5l0.6-2.5H62v3.6h-0.7V26l-0.7,2.8H60L59.3,26v2.8L58.6,28.8z"/>
<path class="st5" d="M62.8,28.8v-3.6h0.7v3h1.8v0.6L62.8,28.8z"/>
<rect x="73.2" y="36.1" class="st7" width="16.1" height="7.3"/>
<path class="st5" d="M79.7,40.1l0.5,0.2c-0.1,0.3-0.2,0.5-0.4,0.7c-0.2,0.2-0.5,0.2-0.7,0.2c-0.3,0-0.7-0.1-0.9-0.4
	c-0.2-0.3-0.4-0.6-0.4-1c0-0.4,0.1-0.8,0.4-1.1c0.2-0.3,0.6-0.4,0.9-0.4c0.3,0,0.6,0.1,0.8,0.3c0.1,0.1,0.2,0.3,0.3,0.5l-0.5,0.1
	c0-0.1-0.1-0.2-0.2-0.3c-0.1-0.1-0.2-0.1-0.4-0.1c-0.2,0-0.4,0.1-0.5,0.2c-0.1,0.2-0.2,0.5-0.2,0.7c0,0.3,0,0.5,0.2,0.8
	c0.1,0.1,0.3,0.2,0.5,0.2c0.1,0,0.3,0,0.4-0.1C79.6,40.4,79.6,40.3,79.7,40.1z"/>
<path class="st5" d="M81.3,40.7V40h-0.7v-0.5h0.7v-0.7h0.5v0.7h0.7V40h-0.7v0.7L81.3,40.7z"/>
<path class="st5" d="M83.5,40.7V40h-0.7v-0.5h0.7v-0.7H84v0.7h0.7V40H84v0.7L83.5,40.7z"/>
<path class="st5" d="M31.8,82.5c0,4.6-3.7,8.3-8.3,8.3s-8.3-3.7-8.3-8.3s3.7-8.3,8.3-8.3l0,0C28.1,74.2,31.8,77.9,31.8,82.5z"/>
<path class="st7" d="M18.3,84.4v-3.8h1.2c0.3,0,0.6,0,0.9,0.1c0.2,0.1,0.4,0.2,0.5,0.4c0.2,0.2,0.2,0.5,0.2,0.7c0,0.2,0,0.4-0.1,0.6
	c-0.1,0.1-0.2,0.3-0.3,0.4c-0.1,0.1-0.3,0.2-0.4,0.2c-0.3,0-0.5,0.1-0.8,0h-0.5v1.5L18.3,84.4z M19.1,81.2v1.1h0.4
	c0.2,0,0.4,0,0.6-0.1c0.1,0,0.2-0.1,0.2-0.2c0.1-0.2,0.1-0.4,0-0.6c-0.1-0.1-0.2-0.1-0.3-0.2c-0.2,0-0.4,0-0.6,0L19.1,81.2z"/>
<path class="st7" d="M21.9,84.4v-3.8h0.8v1.5h1.5v-1.5H25v3.8h-0.8v-1.7h-1.5v1.7H21.9z"/>
<path class="st7" d="M25.8,84.4v-3.8H27c0.3,0,0.6,0,0.9,0.1c0.2,0.1,0.4,0.2,0.5,0.4c0.2,0.2,0.2,0.5,0.2,0.7c0,0.2,0,0.4-0.1,0.6
	c-0.1,0.1-0.2,0.3-0.3,0.4c-0.1,0.1-0.3,0.2-0.4,0.2c-0.3,0-0.5,0.1-0.8,0h-0.5v1.5L25.8,84.4z M26.5,81.2v1.1h0.4
	c0.2,0,0.4,0,0.6-0.1c0.1,0,0.2-0.1,0.2-0.2c0.1-0.2,0.1-0.4,0-0.6c-0.1-0.1-0.2-0.2-0.3-0.2c-0.2,0-0.4,0-0.6,0L26.5,81.2z"/>
</svg>
