<svg id="Layer_1" data-name="Layer 1" xmlns="http://www.w3.org/2000/svg" width="111" height="111" viewBox="0 0 111 111"><title>coding-icon</title><rect width="111" height="111" style="fill:#92deeb"/><path d="M354.36,331.69a1,1,0,0,1-.66.24,1,1,0,0,1-.84-.38,2,2,0,0,1-.33-1.29,1.85,1.85,0,0,1,.33-1.23,1.07,1.07,0,0,1,.86-.38,1,1,0,0,1,.65.21,1,1,0,0,1,.36.59l.95-.23a1.86,1.86,0,0,0-.49-.88,2,2,0,0,0-1.42-.52,2.11,2.11,0,0,0-1.62.66,2.61,2.61,0,0,0-.61,1.85,2.46,2.46,0,0,0,.61,1.77,2,2,0,0,0,1.56.65,2,2,0,0,0,1.27-.38,2.08,2.08,0,0,0,.71-1.16l-.93-.29A1.41,1.41,0,0,1,354.36,331.69Z" transform="translate(-309 -229)" style="fill:#fff"/><path d="M358.63,327.82a2.74,2.74,0,0,0-1,.19,1.93,1.93,0,0,0-.62.43,2.4,2.4,0,0,0-.44.65,3.15,3.15,0,0,0-.22,1.23,2.43,2.43,0,0,0,.63,1.78,2.51,2.51,0,0,0,3.37,0,2.49,2.49,0,0,0,.63-1.81,2.46,2.46,0,0,0-.64-1.81A2.21,2.21,0,0,0,358.63,327.82Zm.95,3.7a1.28,1.28,0,0,1-1.89,0,1.79,1.79,0,0,1-.38-1.23,1.84,1.84,0,0,1,.37-1.23,1.22,1.22,0,0,1,1-.4,1.2,1.2,0,0,1,.95.4,1.78,1.78,0,0,1,.36,1.22A1.83,1.83,0,0,1,359.58,331.52Z" transform="translate(-309 -229)" style="fill:#fff"/><path d="M365.08,328.43a1.67,1.67,0,0,0-.72-.44,3.49,3.49,0,0,0-.91-.09H361.7v4.77h1.81a2.82,2.82,0,0,0,.85-.1,1.66,1.66,0,0,0,.67-.38,2,2,0,0,0,.52-.84,3.4,3.4,0,0,0,.14-1,3.61,3.61,0,0,0-.15-1.12A2.15,2.15,0,0,0,365.08,328.43Zm-.48,2.73a1,1,0,0,1-.25.46.91.91,0,0,1-.39.2,2.56,2.56,0,0,1-.58.05h-.72v-3.16h.43a4.25,4.25,0,0,1,.79.05.87.87,0,0,1,.45.22,1.19,1.19,0,0,1,.27.46,3,3,0,0,1,.1.85A3.24,3.24,0,0,1,364.6,331.16Z" transform="translate(-309 -229)" style="fill:#fff"/><rect x="57.48" y="98.9" width="0.96" height="4.77" style="fill:#fff"/><polygon points="62.26 102.09 60.3 98.9 59.37 98.9 59.37 103.67 60.26 103.67 60.26 100.56 62.18 103.67 63.15 103.67 63.15 98.9 62.26 98.9 62.26 102.09" style="fill:#fff"/><path d="M375.39,330.12v.8h1.1v.6a2,2,0,0,1-.52.29,1.7,1.7,0,0,1-.61.12,1.26,1.26,0,0,1-1-.42,1.9,1.9,0,0,1-.38-1.28,1.66,1.66,0,0,1,.38-1.18,1.27,1.27,0,0,1,1-.4,1.09,1.09,0,0,1,.69.2.94.94,0,0,1,.38.55l1-.18a1.74,1.74,0,0,0-.64-1,2.36,2.36,0,0,0-1.39-.37,2.41,2.41,0,0,0-1.14.24,2.14,2.14,0,0,0-.92.89,2.8,2.8,0,0,0-.31,1.32,3,3,0,0,0,.28,1.27,2,2,0,0,0,.84.9,2.58,2.58,0,0,0,1.3.31,3.14,3.14,0,0,0,1.16-.22,2.49,2.49,0,0,0,.88-.52v-1.89Z" transform="translate(-309 -229)" style="fill:#fff"/><circle cx="55.5" cy="55.5" r="36.08" style="fill:#adecf7"/><rect x="23.51" y="31.2" width="38.65" height="52.22" style="fill:#474f59"/><rect x="27.69" y="35.62" width="7.9" height="0.83" style="fill:#cccbca"/><rect x="27.69" y="41.92" width="2.23" height="0.83" style="fill:#cccbca"/><rect x="36.96" y="35.62" width="3.14" height="0.83" style="fill:#cccbca"/><rect x="30.49" y="41.92" width="8.03" height="0.83" style="fill:#cccbca"/><rect x="29.92" y="37.77" width="3.54" height="0.82" style="fill:#cccbca"/><rect x="29.92" y="48.37" width="3.54" height="0.83" style="fill:#cccbca"/><rect x="27.69" y="61.13" width="5.77" height="0.82" style="fill:#cccbca"/><rect x="29.92" y="50.53" width="1.46" height="0.82" style="fill:#cccbca"/><rect x="34.29" y="48.37" width="9.26" height="0.83" style="fill:#cccbca"/><rect x="33.7" y="54.82" width="3.22" height="0.83" style="fill:#cccbca"/><rect x="31.8" y="78.17" width="3.22" height="0.83" style="fill:#cccbca"/><rect x="37.77" y="54.82" width="5.23" height="0.83" style="fill:#cccbca"/><rect x="43.76" y="63.27" width="2.67" height="0.82" style="fill:#cccbca"/><rect x="34.39" y="73.87" width="6.25" height="0.82" style="fill:#cccbca"/><rect x="36.41" y="78.17" width="7.35" height="0.83" style="fill:#cccbca"/><rect x="49.62" y="67.58" width="2.67" height="0.82" style="fill:#cccbca"/><rect x="44.3" y="54.82" width="6.29" height="0.83" style="fill:#cccbca"/><rect x="44.6" y="48.37" width="6.66" height="0.83" style="fill:#cccbca"/><rect x="52.6" y="48.37" width="4.08" height="0.83" style="fill:#cccbca"/><rect x="29.92" y="44.08" width="5.28" height="0.82" style="fill:#cccbca"/><rect x="29.92" y="46.22" width="7.49" height="0.82" style="fill:#cccbca"/><rect x="31.92" y="50.53" width="8.58" height="0.82" style="fill:#cccbca"/><rect x="29.92" y="65.42" width="8.58" height="0.83" style="fill:#cccbca"/><rect x="33.06" y="67.58" width="6.28" height="0.82" style="fill:#cccbca"/><rect x="37.95" y="76.02" width="16.69" height="0.82" style="fill:#cccbca"/><rect x="46" y="78.17" width="3.66" height="0.83" style="fill:#cccbca"/><rect x="40.36" y="67.58" width="8.18" height="0.82" style="fill:#cccbca"/><rect x="43.02" y="73.87" width="8.18" height="0.82" style="fill:#cccbca"/><rect x="31.92" y="52.68" width="2.79" height="0.82" style="fill:#cccbca"/><rect x="31.92" y="56.98" width="3.03" height="0.82" style="fill:#cccbca"/><rect x="29.92" y="63.27" width="12.76" height="0.82" style="fill:#cccbca"/><rect x="29.92" y="67.58" width="2.04" height="0.82" style="fill:#cccbca"/><rect x="27.69" y="73.87" width="5.72" height="0.82" style="fill:#cccbca"/><rect x="29.92" y="76.02" width="6.52" height="0.83" style="fill:#cccbca"/><rect x="35.59" y="52.68" width="16.77" height="0.82" style="fill:#cccbca"/><rect x="31.7" y="69.73" width="5.36" height="0.81" style="fill:#cccbca"/><rect x="38.9" y="69.73" width="14.82" height="0.81" style="fill:#cccbca"/><rect x="41.34" y="50.53" width="1.54" height="0.82" style="fill:#cccbca"/><rect x="44.03" y="50.53" width="2.88" height="0.82" style="fill:#cccbca"/><rect x="38.21" y="46.22" width="7.49" height="0.82" style="fill:#cccbca"/><rect x="46.22" y="46.22" width="6.15" height="0.82" style="fill:#cccbca"/><rect x="54.64" y="46.22" width="3.34" height="0.82" style="fill:#cccbca"/><rect x="36.93" y="44.08" width="8.12" height="0.82" style="fill:#cccbca"/><rect x="34.77" y="37.77" width="8.04" height="0.82" style="fill:#cccbca"/><rect x="23.51" y="27.02" width="38.65" height="4.18" style="fill:#232e38"/><path d="M393.08,285.92v29.39a3.81,3.81,0,1,1-7.61,0V279.53a4.42,4.42,0,1,0-8.84,0v8.64h.61v-8.64a3.81,3.81,0,1,1,7.61,0v35.78a4.42,4.42,0,0,0,8.84,0V285.92Z" transform="translate(-309 -229)" style="fill:#fff"/><rect x="67.18" y="59.17" width="1.5" height="2.77" style="fill:#fff"/><rect x="83.64" y="50.94" width="1.5" height="1.8" style="fill:#cccbca"/><rect x="83.19" y="52.73" width="2.4" height="4.19" style="fill:#fff"/><rect x="40.13" y="61.96" width="55.61" height="21.45" style="fill:#cccbca"/><rect x="41.96" y="63.8" width="2.77" height="2.76" style="fill:#fff"/><rect x="87.49" y="67.44" width="2.77" height="2.77" style="fill:#fff"/><rect x="83.86" y="67.44" width="2.77" height="2.77" style="fill:#fff"/><rect x="80.21" y="67.44" width="2.77" height="2.77" style="fill:#fff"/><rect x="76.57" y="67.44" width="2.77" height="2.77" style="fill:#fff"/><rect x="72.93" y="67.44" width="2.77" height="2.77" style="fill:#fff"/><rect x="69.28" y="67.44" width="2.77" height="2.77" style="fill:#fff"/><rect x="65.64" y="67.44" width="2.77" height="2.77" style="fill:#fff"/><rect x="62" y="67.44" width="2.77" height="2.77" style="fill:#fff"/><rect x="58.36" y="67.44" width="2.77" height="2.77" style="fill:#fff"/><rect x="54.71" y="67.44" width="2.77" height="2.77" style="fill:#fff"/><rect x="51.07" y="67.44" width="2.77" height="2.77" style="fill:#fff"/><rect x="47.43" y="67.44" width="2.77" height="2.77" style="fill:#fff"/><rect x="48.31" y="71.07" width="2.77" height="2.77" style="fill:#fff"/><rect x="46.52" y="74.72" width="2.77" height="2.77" style="fill:#fff"/><rect x="50.16" y="74.72" width="2.77" height="2.77" style="fill:#fff"/><rect x="53.81" y="74.72" width="2.77" height="2.77" style="fill:#fff"/><rect x="57.45" y="74.72" width="2.77" height="2.77" style="fill:#fff"/><rect x="61.09" y="74.72" width="2.77" height="2.77" style="fill:#fff"/><rect x="64.73" y="74.72" width="2.77" height="2.77" style="fill:#fff"/><rect x="68.38" y="74.72" width="2.77" height="2.77" style="fill:#fff"/><rect x="72.02" y="74.72" width="2.77" height="2.77" style="fill:#fff"/><rect x="75.66" y="74.72" width="2.77" height="2.77" style="fill:#fff"/><rect x="79.3" y="74.72" width="2.77" height="2.77" style="fill:#fff"/><rect x="82.94" y="74.72" width="2.77" height="2.77" style="fill:#fff"/><rect x="86.58" y="74.72" width="7.33" height="2.77" style="fill:#fff"/><rect x="51.95" y="71.07" width="2.77" height="2.77" style="fill:#fff"/><rect x="55.59" y="71.07" width="2.77" height="2.77" style="fill:#fff"/><rect x="59.23" y="71.07" width="2.77" height="2.77" style="fill:#fff"/><rect x="62.87" y="71.07" width="2.77" height="2.77" style="fill:#fff"/><rect x="66.51" y="71.07" width="2.77" height="2.77" style="fill:#fff"/><rect x="70.16" y="71.07" width="2.77" height="2.77" style="fill:#fff"/><rect x="73.8" y="71.07" width="2.77" height="2.77" style="fill:#fff"/><rect x="77.44" y="71.07" width="2.77" height="2.77" style="fill:#fff"/><rect x="81.08" y="71.07" width="2.77" height="2.77" style="fill:#fff"/><rect x="84.72" y="71.07" width="2.77" height="2.77" style="fill:#fff"/><rect x="88.36" y="71.07" width="2.77" height="2.77" style="fill:#fff"/><rect x="45.6" y="63.8" width="2.77" height="2.76" style="fill:#fff"/><rect x="49.25" y="63.8" width="2.77" height="2.76" style="fill:#fff"/><rect x="52.89" y="63.8" width="2.77" height="2.76" style="fill:#fff"/><rect x="56.53" y="63.8" width="2.77" height="2.76" style="fill:#fff"/><rect x="60.17" y="63.8" width="2.77" height="2.76" style="fill:#fff"/><rect x="63.82" y="63.8" width="2.77" height="2.76" style="fill:#fff"/><rect x="67.46" y="63.8" width="2.77" height="2.76" style="fill:#fff"/><rect x="71.1" y="63.8" width="2.77" height="2.76" style="fill:#fff"/><rect x="74.74" y="63.8" width="2.77" height="2.76" style="fill:#fff"/><rect x="78.38" y="63.8" width="2.77" height="2.76" style="fill:#fff"/><rect x="82.03" y="63.8" width="2.77" height="2.76" style="fill:#fff"/><rect x="85.67" y="63.8" width="2.77" height="2.76" style="fill:#fff"/><rect x="89.31" y="63.8" width="4.59" height="2.76" style="fill:#fff"/><rect x="41.96" y="67.44" width="4.6" height="2.77" style="fill:#fff"/><rect x="41.96" y="71.07" width="5.48" height="2.77" style="fill:#fff"/><rect x="41.96" y="74.72" width="3.69" height="2.77" style="fill:#fff"/><rect x="41.96" y="78.36" width="2.77" height="3.23" style="fill:#fff"/><rect x="45.59" y="78.36" width="2.77" height="3.23" style="fill:#fff"/><rect x="49.22" y="78.36" width="2.77" height="3.23" style="fill:#fff"/><rect x="52.86" y="78.36" width="3.72" height="3.23" style="fill:#fff"/><rect x="57.45" y="78.36" width="17.34" height="3.23" style="fill:#fff"/><rect x="75.66" y="78.36" width="3.72" height="3.23" style="fill:#fff"/><rect x="80.24" y="78.36" width="2.77" height="3.23" style="fill:#fff"/><rect x="83.88" y="80.08" width="2.77" height="1.5" style="fill:#fff"/><rect x="87.51" y="80.17" width="2.77" height="1.42" style="fill:#fff"/><rect x="87.51" y="78.35" width="2.77" height="1.42" style="fill:#fff"/><rect x="91.14" y="80.08" width="2.77" height="1.5" style="fill:#fff"/><polygon points="92 73.84 92 70.2 91.14 70.2 91.14 67.44 93.91 67.44 93.91 73.84 92 73.84" style="fill:#fff"/><rect x="47.34" y="20.27" width="22.49" height="13.49" style="fill:#f77b55"/><path d="M360.85,257.81v-3.6h.73v1.42H363v-1.42h.73v3.6H363v-1.57h-1.43v1.57Z" transform="translate(-309 -229)" style="fill:#fff"/><path d="M365.3,257.81v-3h-1.07v-.61h2.87v.61H366v3Z" transform="translate(-309 -229)" style="fill:#fff"/><path d="M367.56,257.81v-3.6h1.09l.65,2.46.65-2.46h1.1v3.6h-.68V255l-.72,2.84H369l-.71-2.84v2.84Z" transform="translate(-309 -229)" style="fill:#fff"/><path d="M371.78,257.81v-3.57h.74v3h1.81v.6Z" transform="translate(-309 -229)" style="fill:#fff"/><rect x="73.19" y="36.11" width="16.12" height="7.26" style="fill:#353f49"/><path d="M388.66,269.1l.53.17a1.19,1.19,0,0,1-.41.67,1.14,1.14,0,0,1-.73.23,1.16,1.16,0,0,1-.89-.38,1.42,1.42,0,0,1-.35-1,1.5,1.5,0,0,1,.35-1.07,1.22,1.22,0,0,1,.93-.38,1.15,1.15,0,0,1,.81.3,1,1,0,0,1,.28.51l-.54.12a.61.61,0,0,0-.21-.33.59.59,0,0,0-.37-.13.65.65,0,0,0-.5.22,1.14,1.14,0,0,0-.19.71,1.21,1.21,0,0,0,.19.75.61.61,0,0,0,.49.22.57.57,0,0,0,.38-.14A.8.8,0,0,0,388.66,269.1Z" transform="translate(-309 -229)" style="fill:#fff"/><path d="M390.27,269.72V269h-.72v-.49h.72v-.71h.48v.71h.71V269h-.71v.71Z" transform="translate(-309 -229)" style="fill:#fff"/><path d="M392.5,269.72V269h-.72v-.49h.72v-.71H393v.71h.72V269H393v.71Z" transform="translate(-309 -229)" style="fill:#fff"/><path d="M340.76,311.48a8.25,8.25,0,1,1-8.25-8.25A8.25,8.25,0,0,1,340.76,311.48Z" transform="translate(-309 -229)" style="fill:#fff"/><path d="M327.34,313.4v-3.82h1.24a3.71,3.71,0,0,1,.92.06,1,1,0,0,1,.55.37,1.16,1.16,0,0,1,.22.74,1.21,1.21,0,0,1-.13.6,1.06,1.06,0,0,1-.32.37,1,1,0,0,1-.4.18,4.21,4.21,0,0,1-.8.05h-.5v1.45Zm.78-3.18v1.09h.42a1.65,1.65,0,0,0,.61-.07.48.48,0,0,0,.24-.18.54.54,0,0,0,0-.64.56.56,0,0,0-.31-.17,3.35,3.35,0,0,0-.56,0Z" transform="translate(-309 -229)" style="fill:#353f49"/><path d="M330.9,313.4v-3.82h.78v1.5h1.5v-1.5H334v3.82h-.78v-1.68h-1.5v1.68Z" transform="translate(-309 -229)" style="fill:#353f49"/><path d="M334.75,313.4v-3.82H336a3.71,3.71,0,0,1,.92.06,1,1,0,0,1,.55.37,1.16,1.16,0,0,1,.22.74,1.21,1.21,0,0,1-.13.6,1,1,0,0,1-.32.37,1,1,0,0,1-.4.18,4.14,4.14,0,0,1-.8.05h-.5v1.45Zm.77-3.18v1.09h.42a1.62,1.62,0,0,0,.61-.07.48.48,0,0,0,.24-.18.54.54,0,0,0,0-.64.53.53,0,0,0-.31-.17,3.26,3.26,0,0,0-.56,0Z" transform="translate(-309 -229)" style="fill:#353f49"/></svg>