<svg id="Layer_1" data-name="Layer 1" xmlns="http://www.w3.org/2000/svg" width="606.29" height="229.93" viewBox="0 0 606.29 229.93"><title>logo_1</title><path d="M51.15,143.66a22,22,0,0,0-.38,42.81c4,1,8.65.67,13.74,1.79a39.87,39.87,0,0,1,30.67,32c.78,4.44.49,9.57,1.91,13.84a22,22,0,1,0,29.38-27.2c-5.75-2.42-8.15-1.55-13.8-2.3a40.13,40.13,0,0,1-9.52-2.5,30.48,30.48,0,0,1-7-3.62,40.1,40.1,0,0,1-12.65-13.29,39.83,39.83,0,0,1,27.7-59.32c4-.68,8.31-.34,12.21-1.35a22,22,0,1,0-26.4-28.09c-1.57,4.81-1,7.1-1.61,12a39.83,39.83,0,0,1-34.88,34.42c-3.8.44-5.76.05-9.42.87Z" transform="translate(-33.97 -19.21)" style="fill:#f89938"/><path d="M246.72,124.69a22,22,0,0,0,.37-42.82c-4-1-8.65-.67-13.74-1.78a39.87,39.87,0,0,1-30.67-32c-.77-4.43-.49-9.56-1.91-13.84a22,22,0,1,0-29.38,27.21c5.75,2.42,8.16,1.55,13.8,2.3a40.33,40.33,0,0,1,9.53,2.5,30.41,30.41,0,0,1,6.94,3.62,39.82,39.82,0,0,1-15,72.61c-4,.68-8.31.34-12.22,1.35a22,22,0,1,0,26.41,28.09c1.56-4.81,1-7.1,1.6-12a39.83,39.83,0,0,1,34.88-34.42c3.8-.44,5.76,0,9.43-.87Z" transform="translate(-33.97 -19.21)" style="fill:#f89938"/><path d="M158.42,232a22,22,0,0,0,42.81.38c1-4,.67-8.66,1.78-13.74a39.87,39.87,0,0,1,32-30.67c4.44-.78,9.57-.49,13.84-1.91a22,22,0,1,0-27.2-29.39c-2.42,5.75-1.55,8.16-2.31,13.81a39.32,39.32,0,0,1-2.5,9.52,29.71,29.71,0,0,1-3.62,6.95,39.83,39.83,0,0,1-72.61-15c-.67-4-.33-8.31-1.34-12.21a22,22,0,1,0-28.09,26.4c4.8,1.56,7.1,1,11.95,1.6a39.86,39.86,0,0,1,34.42,34.88c.44,3.8,0,5.76.87,9.43Z" transform="translate(-33.97 -19.21)" style="fill:#231f20"/><path d="M139.45,36.39A22,22,0,0,0,96.63,36c-1,4-.67,8.66-1.78,13.74a39.87,39.87,0,0,1-32,30.67c-4.44.78-9.56.49-13.84,1.91a22,22,0,1,0,27.2,29.39c2.42-5.76,1.55-8.16,2.31-13.81A40.13,40.13,0,0,1,81,88.39a30.48,30.48,0,0,1,3.62-7,39.83,39.83,0,0,1,72.61,15c.67,4,.34,8.31,1.34,12.21a22,22,0,1,0,28.09-26.4c-4.8-1.56-7.1-1-12-1.6a39.85,39.85,0,0,1-34.42-34.89c-.43-3.8-.05-5.75-.86-9.42Z" transform="translate(-33.97 -19.21)" style="fill:#231f20"/><path d="M257.53,56.3a21.73,21.73,0,1,1,0-30.73,21.73,21.73,0,0,1,0,30.73Z" transform="translate(-33.97 -19.21)" style="fill:#f89938;fill-rule:evenodd"/><path d="M257.53,242.77a21.73,21.73,0,1,1,0-30.73,21.73,21.73,0,0,1,0,30.73Z" transform="translate(-33.97 -19.21)" style="fill:#231f20;fill-rule:evenodd"/><path d="M71.06,56.3a21.73,21.73,0,1,1,0-30.73,21.74,21.74,0,0,1,0,30.73Z" transform="translate(-33.97 -19.21)" style="fill:#231f20;fill-rule:evenodd"/><path d="M71.06,242.77a21.73,21.73,0,1,1,0-30.73,21.74,21.74,0,0,1,0,30.73Z" transform="translate(-33.97 -19.21)" style="fill:#f89938;fill-rule:evenodd"/><polygon points="264.36 72.92 271.33 72.92 271.33 94.06 293.98 94.06 293.98 72.92 300.95 72.92 300.95 122.81 293.98 122.81 293.98 99.73 271.33 99.73 271.33 122.81 264.36 122.81 264.36 72.92 264.36 72.92" style="fill:#434242"/><polygon points="313.33 72.92 320.3 72.92 320.3 122.81 313.33 122.81 313.33 72.92 313.33 72.92" style="fill:#434242"/><path d="M404.8,94.36l-1,5.9a26.4,26.4,0,0,0-6-2.16,28.39,28.39,0,0,0-6.39-.72q-9,0-14.43,5.46t-5.42,14.45q0,8.85,5.42,14.13t14.51,5.28a24.26,24.26,0,0,0,4-.34,21.14,21.14,0,0,0,3.86-1.09V120.1H389v-5.47h17.18v25a39.94,39.94,0,0,1-7.28,1.94,47.76,47.76,0,0,1-8,.65q-12.3,0-19.47-6.76t-7.18-18.35q0-11.5,7.25-18.36T391,91.92a39.84,39.84,0,0,1,13.76,2.44Z" transform="translate(-33.97 -19.21)" style="fill:#434242"/><polygon points="383.77 72.92 390.75 72.92 390.75 94.06 413.39 94.06 413.39 72.92 420.37 72.92 420.37 122.81 413.39 122.81 413.39 99.73 390.75 99.73 390.75 122.81 383.77 122.81 383.77 72.92 383.77 72.92" style="fill:#434242"/><polygon points="427.42 72.92 465.45 72.92 465.45 82.91 453.08 82.91 453.08 122.81 439.79 122.81 439.79 82.91 427.42 82.91 427.42 72.92 427.42 72.92" style="fill:#434242"/><polygon points="471.14 72.92 505.79 72.92 505.79 82.27 484.44 82.27 484.44 92.33 504.57 92.33 504.57 101.82 484.44 101.82 484.44 113.18 506.58 113.18 506.58 122.81 471.14 122.81 471.14 72.92 471.14 72.92" style="fill:#434242"/><path d="M590.21,93.65l-1.15,10.44a23.18,23.18,0,0,0-5.8-2.5,22.91,22.91,0,0,0-6.14-.83q-7.47,0-11.89,4.35t-4.42,11.68c0,4.91,1.49,8.82,4.5,11.73s7,4.37,12,4.37a26.31,26.31,0,0,0,6-.72,32.66,32.66,0,0,0,6.2-2.15l.8,11.19a53.21,53.21,0,0,1-7.16,1.47,54.31,54.31,0,0,1-7.23.49q-13.58,0-21.16-7t-7.58-19.43q0-11.9,7.48-18.88t20.28-7a46.89,46.89,0,0,1,8.12.68,33.68,33.68,0,0,1,7.11,2.06Z" transform="translate(-33.97 -19.21)" style="fill:#434242"/><polygon points="564.16 72.92 577.46 72.92 577.46 91.97 592.99 91.97 592.99 72.92 606.28 72.92 606.28 122.81 592.99 122.81 592.99 101.96 577.46 101.96 577.46 122.81 564.16 122.81 564.16 72.92 564.16 72.92" style="fill:#434242"/></svg>