<?xml version="1.0" encoding="utf-8"?>
<!-- Generator: Adobe Illustrator 22.0.1, SVG Export Plug-In . SVG Version: 6.00 Build 0)  -->
<svg version="1.1" id="Layer_1" xmlns="http://www.w3.org/2000/svg" xmlns:xlink="http://www.w3.org/1999/xlink" x="0px" y="0px"
	 viewBox="0 0 111 111" style="enable-background:new 0 0 111 111;" xml:space="preserve">
<style type="text/css">
	.st0{fill:#F77B55;fill-opacity:0;}
	.st1{fill:#FF916E;}
	.st2{fill:#FFFFFF;}
	.st3{fill:#353F49;}
	.st4{fill:#FDCA5C;}
	.st5{fill:#F77B55;}
	.st6{fill:#D9D8D7;}
	.st7{fill:#92DEEB;}
	.st8{fill:#E6E5E5;}
	.st9{fill:#FFDB79;}
</style>
<title>e-commerce-icon-transparent-background</title>
<polyline class="st0" points="0,111 0,0 111,0 111,111 "/>
<circle class="st1" cx="55.5" cy="55.5" r="36.1"/>
<rect x="28.5" y="30.5" class="st2" width="49.3" height="50"/>
<rect x="28.5" y="26.1" class="st3" width="49.3" height="4.4"/>
<rect x="32.8" y="38.1" class="st4" width="40.9" height="17.2"/>
<rect x="32.8" y="33.6" class="st5" width="8.4" height="1.4"/>
<rect x="43.6" y="33.6" class="st5" width="8.4" height="1.4"/>
<rect x="54.5" y="33.6" class="st5" width="8.4" height="1.4"/>
<rect x="65.3" y="33.6" class="st5" width="8.4" height="1.4"/>
<rect x="32.8" y="58.4" class="st6" width="10.4" height="10.4"/>
<rect x="32.8" y="70.4" class="st6" width="10.4" height="0.7"/>
<rect x="32.8" y="71.8" class="st6" width="10.4" height="0.8"/>
<rect x="32.8" y="73.3" class="st6" width="5.2" height="0.8"/>
<rect x="48" y="58.4" class="st6" width="10.5" height="10.4"/>
<rect x="48" y="70.4" class="st6" width="10.5" height="0.7"/>
<rect x="48" y="71.8" class="st6" width="10.5" height="0.8"/>
<rect x="48" y="73.3" class="st6" width="5.2" height="0.8"/>
<rect x="63.3" y="58.4" class="st5" width="10.5" height="10.4"/>
<rect x="63.3" y="70.4" class="st6" width="10.5" height="0.7"/>
<rect x="63.3" y="71.8" class="st6" width="10.5" height="0.8"/>
<rect x="63.3" y="73.3" class="st6" width="5.2" height="0.8"/>
<polygon class="st3" points="71.6,71.4 68.5,63.6 76.3,66.8 73.2,68.4 "/>
<rect x="73.6" y="67.5" transform="matrix(0.7062 -0.708 0.708 0.7062 -27.3103 72.932)" class="st3" width="1.2" height="3.7"/>
<rect x="66.4" y="61" transform="matrix(0.7074 -0.7069 0.7069 0.7074 -24.1509 65.1176)" class="st2" width="0.3" height="1.4"/>
<polygon class="st2" points="66.6,63 65.3,62.4 65.4,62.2 66.7,62.7 "/>
<rect x="65.1" y="63.5" class="st2" width="1.4" height="0.3"/>
<polygon class="st2" points="65.4,65.1 65.3,64.8 66.6,64.2 66.7,64.5 "/>
<rect x="65.9" y="65.4" transform="matrix(0.7062 -0.708 0.708 0.7062 -26.848 66.3765)" class="st2" width="1.4" height="0.3"/>
<polygon class="st2" points="67.3,66.8 67,66.7 67.6,65.4 67.9,65.5 "/>
<rect x="68.3" y="65.6" class="st2" width="0.3" height="1.4"/>
<rect x="70.5" y="63.5" class="st2" width="1.4" height="0.3"/>
<rect x="70.3" y="62.4" transform="matrix(0.9242 -0.3819 0.3819 0.9242 -18.5216 31.8505)" class="st2" width="1.4" height="0.3"/>
<rect x="69.7" y="61.6" transform="matrix(0.7064 -0.7078 0.7078 0.7064 -23.0097 67.9574)" class="st2" width="1.4" height="0.3"/>
<polygon class="st2" points="69.4,61.8 69.1,61.7 69.7,60.4 69.9,60.5 "/>
<rect x="68.3" y="60.2" class="st2" width="0.3" height="1.4"/>
<rect x="67.3" y="60.4" transform="matrix(0.9241 -0.3822 0.3822 0.9241 -18.2194 30.4162)" class="st2" width="0.3" height="1.4"/>
<path class="st7" d="M41.8,65.3c0.8,0,1.4,0.6,1.4,1.4c0,0,0,0,0,0v16.6c0,0.8-0.6,1.4-1.4,1.4c0,0,0,0,0,0H15.4
	c-0.8,0-1.4-0.6-1.4-1.4c0,0,0,0,0,0V66.7c0-0.8,0.6-1.4,1.4-1.4c0,0,0,0,0,0H41.8z"/>
<rect x="17.6" y="80.5" class="st3" width="4.6" height="0.6"/>
<rect x="23.4" y="80.5" class="st3" width="4.6" height="0.6"/>
<rect x="29.2" y="80.5" class="st3" width="4.6" height="0.6"/>
<rect x="35" y="80.5" class="st3" width="4.6" height="0.6"/>
<rect x="17.6" y="75" class="st2" width="22" height="2.5"/>
<rect x="28.4" y="76.1" class="st3" width="1.3" height="0.5"/>
<rect x="30.4" y="76.1" class="st3" width="3.8" height="0.5"/>
<rect x="34.8" y="76.1" class="st3" width="3.8" height="0.5"/>
<rect x="13.9" y="68.8" class="st3" width="29.3" height="4.5"/>
<path class="st2" d="M90.1,64.9h3c2.3,0,4.1,1.8,4.1,4.1v11.7c0,2.3-1.8,4.1-4.1,4.1h-3c-2.3,0-4.1-1.8-4.1-4.1V69
	C86,66.7,87.8,64.9,90.1,64.9z"/>
<path class="st8" d="M95.3,65.6c0,0.2,0.1,0.5,0.1,0.7v8.9c0,3.8-3.1,6.9-6.9,6.9h-0.1c-0.8,0-1.6-0.2-2.2-0.6c0.4,1.9,2,3.4,4,3.4
	h3c2.3,0,4.1-1.8,4.1-4.1V69C97.2,67.6,96.4,66.3,95.3,65.6z"/>
<path class="st3" d="M92.5,69.2c0,0.5-0.4,0.9-0.9,0.9c-0.5,0-0.9-0.4-0.9-0.9c0-0.5,0.4-0.9,0.9-0.9l0,0
	C92.1,68.3,92.5,68.7,92.5,69.2z"/>
<path class="st2" d="M75.2,90.7c-4,0-7.2-3.2-7.2-7.2v-3h0.8v3c0.1,3.5,3.1,6.2,6.6,6.1c3.3-0.1,6-2.8,6.1-6.1l0,0
	c0-0.2,0-0.6,0-1.1V51.5c0-2.9,2.3-5.2,5.2-5.2c2.9,0,5.2,2.3,5.2,5.2l0,0v13.4h-0.8V51.5c0-2.4-2-4.4-4.4-4.4s-4.4,2-4.4,4.4v32
	C82.4,87.4,79.2,90.7,75.2,90.7C75.2,90.7,75.2,90.7,75.2,90.7z"/>
<path class="st4" d="M22.9,38.2c0,2.5-2,4.5-4.5,4.5c-2.5,0-4.5-2-4.5-4.5c0-2.5,2-4.5,4.5-4.5c0,0,0,0,0,0
	C20.9,33.7,22.9,35.7,22.9,38.2C22.9,38.2,22.9,38.2,22.9,38.2z"/>
<path class="st9" d="M22,38.2c0,2-1.6,3.6-3.6,3.6c-2,0-3.6-1.6-3.6-3.6c0-2,1.6-3.6,3.6-3.6c0,0,0,0,0,0C20.4,34.6,22,36.2,22,38.2
	z"/>
<path class="st4" d="M18.8,38.5H18c-0.7,0-1.2-0.5-1.2-1.2c0-0.3,0.1-0.6,0.3-0.8c0.2-0.2,0.5-0.3,0.8-0.4h1.6v0.6H18
	c-0.2,0-0.3,0.1-0.4,0.2c-0.1,0.1-0.2,0.3-0.2,0.4c0,0.2,0.1,0.3,0.2,0.4c0.1,0.1,0.3,0.2,0.4,0.2h0.8L18.8,38.5z"/>
<path class="st4" d="M18.8,40.3h-1.6v-0.6h1.6c0.3,0,0.6-0.2,0.6-0.6c0,0,0,0,0,0c0-0.2-0.1-0.3-0.2-0.4c-0.1-0.1-0.3-0.2-0.4-0.2
	H18v-0.6h0.8c0.7,0,1.2,0.5,1.2,1.2c0,0.3-0.1,0.6-0.3,0.8C19.4,40.2,19.1,40.3,18.8,40.3z"/>
<rect x="18.1" y="36" class="st4" width="0.6" height="4.5"/>
<path class="st4" d="M37,26.6c0,3.3-2.6,5.9-5.9,5.9s-5.9-2.6-5.9-5.9c0-3.3,2.6-5.9,5.9-5.9c0,0,0,0,0,0C34.4,20.7,37,23.4,37,26.6
	C37,26.6,37,26.6,37,26.6z"/>
<path class="st9" d="M35.8,26.6c0,2.6-2.1,4.7-4.7,4.7c-2.6,0-4.7-2.1-4.7-4.7c0-2.6,2.1-4.7,4.7-4.7c0,0,0,0,0,0
	C33.7,21.9,35.8,24,35.8,26.6C35.8,26.6,35.8,26.6,35.8,26.6z"/>
<path class="st4" d="M31.6,27h-1c-0.9,0-1.5-0.7-1.5-1.6c0-0.4,0.2-0.8,0.5-1.1c0.3-0.3,0.7-0.4,1.1-0.4h2.1v0.8h-2.1
	c-0.2,0-0.4,0.1-0.5,0.2c-0.1,0.1-0.2,0.3-0.2,0.5c0,0.4,0.3,0.8,0.8,0.8h1V27z"/>
<path class="st4" d="M31.6,29.3h-2.1v-0.8h2.1c0.2,0,0.4-0.1,0.5-0.2c0.3-0.3,0.3-0.8,0-1.1C32,27.1,31.8,27,31.6,27h-1v-0.8h1
	c0.4,0,0.8,0.2,1.1,0.4c0.3,0.3,0.5,0.7,0.5,1.1c0,0.4-0.2,0.8-0.5,1.1C32.4,29.2,32,29.3,31.6,29.3z"/>
<rect x="30.7" y="23.7" class="st4" width="0.8" height="5.9"/>
<path class="st4" d="M31.1,50.8c0,1.8-1.4,3.2-3.2,3.2s-3.2-1.4-3.2-3.2s1.4-3.2,3.2-3.2S31.1,49,31.1,50.8L31.1,50.8z"/>
<path class="st9" d="M30.5,50.8c0,1.4-1.1,2.6-2.5,2.6s-2.6-1.1-2.6-2.5s1.1-2.6,2.5-2.6h0C29.3,48.2,30.5,49.4,30.5,50.8z"/>
<path class="st4" d="M28.2,51h-0.5c-0.2,0-0.4-0.1-0.6-0.3c-0.2-0.2-0.3-0.4-0.3-0.6c0-0.5,0.4-0.8,0.8-0.8h1.2v0.4h-1.2
	c-0.1,0-0.2,0-0.3,0.1c-0.1,0.1-0.1,0.2-0.1,0.3c0,0.1,0,0.2,0.1,0.3c0.1,0.1,0.2,0.1,0.3,0.1h0.5L28.2,51z"/>
<path class="st4" d="M28.2,52.3H27v-0.4h1.2c0.1,0,0.2,0,0.3-0.1c0.1-0.1,0.1-0.2,0.1-0.3c0-0.1,0-0.2-0.1-0.3
	C28.4,51,28.3,51,28.2,51h-0.5v-0.4h0.5c0.5,0,0.8,0.4,0.8,0.8c0,0,0,0,0,0C29,51.9,28.6,52.2,28.2,52.3L28.2,52.3z"/>
<rect x="27.7" y="49.2" class="st4" width="0.4" height="3.2"/>
</svg>
