<svg id="Layer_1" data-name="Layer 1" xmlns="http://www.w3.org/2000/svg" width="111" height="111" viewBox="0 0 111 111"><title>e-commerce-icon</title><rect width="111" height="111" style="fill:#f77b55"/><polygon points="33.75 101.57 36.14 101.57 36.14 100.77 33.75 100.77 33.75 99.71 36.32 99.71 36.32 98.9 32.78 98.9 32.78 103.67 36.41 103.67 36.41 102.87 33.75 102.87 33.75 101.57" style="fill:#fff"/><rect x="37.12" y="101.49" width="1.8" height="0.91" style="fill:#fff"/><path d="M351.1,331.69a1,1,0,0,1-.66.24,1.08,1.08,0,0,1-.85-.38,2,2,0,0,1-.32-1.29,1.85,1.85,0,0,1,.33-1.23,1.06,1.06,0,0,1,.86-.38,1,1,0,0,1,.65.21,1,1,0,0,1,.35.59l1-.23a1.86,1.86,0,0,0-.48-.88,2,2,0,0,0-1.42-.52,2.11,2.11,0,0,0-1.62.66,2.62,2.62,0,0,0-.62,1.85,2.46,2.46,0,0,0,.62,1.77,2,2,0,0,0,1.56.65,2,2,0,0,0,1.26-.38,2.09,2.09,0,0,0,.72-1.16l-.94-.29A1.47,1.47,0,0,1,351.1,331.69Z" transform="translate(-309 -229)" style="fill:#fff"/><path d="M355.36,327.82a2.69,2.69,0,0,0-1,.19,1.83,1.83,0,0,0-.62.43,2,2,0,0,0-.44.65,3,3,0,0,0-.22,1.23,2.43,2.43,0,0,0,.63,1.78,2.2,2.2,0,0,0,1.69.65,2.17,2.17,0,0,0,1.67-.65,2.92,2.92,0,0,0,0-3.62A2.22,2.22,0,0,0,355.36,327.82Zm1,3.7a1.29,1.29,0,0,1-1.9,0,1.79,1.79,0,0,1-.37-1.23,1.84,1.84,0,0,1,.36-1.23,1.25,1.25,0,0,1,1-.4,1.22,1.22,0,0,1,1,.4,1.78,1.78,0,0,1,.36,1.22A1.88,1.88,0,0,1,356.32,331.52Z" transform="translate(-309 -229)" style="fill:#fff"/><polygon points="51.73 102.16 50.86 98.9 49.42 98.9 49.42 103.67 50.31 103.67 50.31 99.92 51.26 103.67 52.19 103.67 53.13 99.92 53.13 103.67 54.02 103.67 54.02 98.9 52.58 98.9 51.73 102.16" style="fill:#fff"/><polygon points="57.27 102.16 56.41 98.9 54.97 98.9 54.97 103.67 55.86 103.67 55.86 99.92 56.81 103.67 57.73 103.67 58.68 99.92 58.68 103.67 59.57 103.67 59.57 98.9 58.13 98.9 57.27 102.16" style="fill:#fff"/><polygon points="61.49 101.57 63.88 101.57 63.88 100.77 61.49 100.77 61.49 99.71 64.06 99.71 64.06 98.9 60.53 98.9 60.53 103.67 64.16 103.67 64.16 102.87 61.49 102.87 61.49 101.57" style="fill:#fff"/><path d="M377.13,331a2.1,2.1,0,0,0-.51-.4,1.54,1.54,0,0,0,.94-.44,1.29,1.29,0,0,0,.31-.89,1.45,1.45,0,0,0-.2-.75,1.14,1.14,0,0,0-.56-.46,3.62,3.62,0,0,0-1.11-.13h-2v4.77h1v-2h.19a1.93,1.93,0,0,1,.49.05.89.89,0,0,1,.29.2,6.57,6.57,0,0,1,.5.7l.7,1h1.15l-.58-.93A4.77,4.77,0,0,0,377.13,331Zm-1.48-1.05h-.71v-1.21h.75c.39,0,.62,0,.7,0a.52.52,0,0,1,.36.18.56.56,0,0,1,.13.39.59.59,0,0,1-.1.36.46.46,0,0,1-.27.2A3.52,3.52,0,0,1,375.65,329.92Z" transform="translate(-309 -229)" style="fill:#fff"/><path d="M381.43,331.69a1,1,0,0,1-.66.24,1.07,1.07,0,0,1-.84-.38,2,2,0,0,1-.33-1.29,1.85,1.85,0,0,1,.33-1.23,1.07,1.07,0,0,1,.86-.38,1,1,0,0,1,.66.21,1.07,1.07,0,0,1,.35.59l.95-.23a1.86,1.86,0,0,0-.49-.88,1.94,1.94,0,0,0-1.42-.52,2.09,2.09,0,0,0-1.61.66,2.62,2.62,0,0,0-.62,1.85,2.5,2.5,0,0,0,.61,1.77,2,2,0,0,0,1.56.65,2,2,0,0,0,1.27-.38,2.08,2.08,0,0,0,.71-1.16l-.93-.29A1.41,1.41,0,0,1,381.43,331.69Z" transform="translate(-309 -229)" style="fill:#fff"/><polygon points="75.55 102.87 75.55 101.57 77.95 101.57 77.95 100.77 75.55 100.77 75.55 99.71 78.13 99.71 78.13 98.9 74.59 98.9 74.59 103.67 78.22 103.67 78.22 102.87 75.55 102.87" style="fill:#fff"/><circle cx="55.5" cy="55.5" r="36.08" style="fill:#ff916e"/><rect x="28.55" y="30.5" width="49.35" height="49.97" style="fill:#fff"/><rect x="28.55" y="26.09" width="49.35" height="4.41" style="fill:#353f49"/><rect x="32.75" y="38.07" width="40.95" height="17.23" style="fill:#fdca5c"/><rect x="32.75" y="33.59" width="8.38" height="1.39" style="fill:#f77b55"/><rect x="43.61" y="33.59" width="8.38" height="1.39" style="fill:#f77b55"/><rect x="54.47" y="33.59" width="8.38" height="1.39" style="fill:#f77b55"/><rect x="65.33" y="33.59" width="8.38" height="1.39" style="fill:#f77b55"/><rect x="32.75" y="58.39" width="10.44" height="10.44" style="fill:#d9d8d7"/><rect x="32.75" y="70.36" width="10.44" height="0.74" style="fill:#d9d8d7"/><rect x="32.75" y="71.85" width="10.44" height="0.75" style="fill:#d9d8d7"/><rect x="32.75" y="73.34" width="5.22" height="0.75" style="fill:#d9d8d7"/><rect x="48.01" y="58.39" width="10.45" height="10.44" style="fill:#d9d8d7"/><rect x="48.01" y="70.36" width="10.45" height="0.74" style="fill:#d9d8d7"/><rect x="48.01" y="71.85" width="10.45" height="0.75" style="fill:#d9d8d7"/><rect x="48.01" y="73.34" width="5.23" height="0.75" style="fill:#d9d8d7"/><rect x="63.26" y="58.39" width="10.45" height="10.44" style="fill:#f77b55"/><rect x="63.26" y="70.36" width="10.45" height="0.74" style="fill:#d9d8d7"/><rect x="63.26" y="71.85" width="10.45" height="0.75" style="fill:#d9d8d7"/><rect x="63.26" y="73.34" width="5.22" height="0.75" style="fill:#d9d8d7"/><polygon points="71.63 71.4 68.48 63.61 76.27 66.75 73.24 68.36 71.63 71.4" style="fill:#353f49"/><rect x="382.61" y="296.52" width="1.24" height="3.67" transform="translate(-407.65 129.98) rotate(-45.07)" style="fill:#353f49"/><rect x="375.4" y="289.98" width="0.31" height="1.42" transform="translate(-404.56 121.57) rotate(-44.98)" style="fill:#fff"/><polygon points="66.57 62.98 65.26 62.44 65.37 62.16 66.69 62.7 66.57 62.98" style="fill:#fff"/><rect x="65.05" y="63.45" width="1.42" height="0.31" style="fill:#fff"/><polygon points="65.38 65.07 65.26 64.78 66.57 64.23 66.69 64.52 65.38 65.07" style="fill:#fff"/><rect x="374.85" y="294.37" width="1.42" height="0.31" transform="translate(-407.19 123.42) rotate(-45.07)" style="fill:#fff"/><polygon points="67.31 66.83 67.03 66.72 67.57 65.41 67.86 65.52 67.31 66.83" style="fill:#fff"/><rect x="68.32" y="65.62" width="0.31" height="1.42" style="fill:#fff"/><rect x="70.49" y="63.45" width="1.42" height="0.31" style="fill:#fff"/><rect x="379.28" y="291.41" width="1.42" height="0.31" transform="translate(-391.55 -61.77) rotate(-22.45)" style="fill:#fff"/><rect x="378.69" y="290.53" width="1.42" height="0.31" transform="translate(-403.35 124.94) rotate(-45.06)" style="fill:#fff"/><polygon points="69.4 61.81 69.11 61.69 69.65 60.38 69.94 60.5 69.4 61.81" style="fill:#fff"/><rect x="68.32" y="60.18" width="0.31" height="1.42" style="fill:#fff"/><rect x="376.29" y="289.39" width="0.31" height="1.42" transform="translate(-391.29 -63.13) rotate(-22.47)" style="fill:#fff"/><path d="M350.76,294.28a1.43,1.43,0,0,1,1.44,1.44v16.65a1.43,1.43,0,0,1-1.44,1.44H324.35a1.43,1.43,0,0,1-1.44-1.44V295.72a1.43,1.43,0,0,1,1.44-1.44Z" transform="translate(-309 -229)" style="fill:#92deeb;fill-rule:evenodd"/><rect x="17.56" y="80.48" width="4.58" height="0.62" style="fill:#353f49"/><rect x="23.36" y="80.48" width="4.58" height="0.62" style="fill:#353f49"/><rect x="29.17" y="80.48" width="4.58" height="0.62" style="fill:#353f49"/><rect x="34.97" y="80.48" width="4.58" height="0.62" style="fill:#353f49"/><rect x="17.56" y="75.04" width="21.99" height="2.51" style="fill:#fff"/><rect x="28.38" y="76.06" width="1.26" height="0.47" style="fill:#353f49"/><rect x="30.35" y="76.06" width="3.77" height="0.47" style="fill:#353f49"/><rect x="34.82" y="76.06" width="3.77" height="0.47" style="fill:#353f49"/><rect x="13.91" y="68.83" width="29.29" height="4.47" style="fill:#353f49"/><rect x="85.99" y="64.91" width="11.16" height="19.89" rx="4.09" ry="4.09" style="fill:#fff"/><path d="M404.27,294.57a4.07,4.07,0,0,1,.07.71v8.88a6.93,6.93,0,0,1-6.92,6.92h-.15a4.09,4.09,0,0,1-2.21-.65,4.11,4.11,0,0,0,4,3.38h3a4.11,4.11,0,0,0,4.1-4.1V298A4.09,4.09,0,0,0,404.27,294.57Z" transform="translate(-309 -229)" style="fill:#e6e5e5"/><path d="M401.51,298.19a.93.93,0,1,1-.93-.93A.93.93,0,0,1,401.51,298.19Z" transform="translate(-309 -229)" style="fill:#353f49"/><path d="M384.23,319.68a7.17,7.17,0,0,1-7.16-7.17v-3h.84v3a6.34,6.34,0,0,0,12.67,0h0c0-.23,0-.58,0-1.13v-30.9a5.21,5.21,0,1,1,10.42,0v13.43h-.83V280.48a4.38,4.38,0,0,0-8.76,0v32A7.18,7.18,0,0,1,384.23,319.68Z" transform="translate(-309 -229)" style="fill:#fff"/><path d="M331.9,267.23a4.5,4.5,0,1,1-4.49-4.5A4.49,4.49,0,0,1,331.9,267.23Z" transform="translate(-309 -229)" style="fill:#fdca5c"/><path d="M331,267.23a3.6,3.6,0,1,1-3.59-3.59A3.6,3.6,0,0,1,331,267.23Z" transform="translate(-309 -229)" style="fill:#ffdb79"/><path d="M327.78,267.53H327a1.18,1.18,0,0,1-.84-2,1.19,1.19,0,0,1,.84-.35h1.64v.6H327a.55.55,0,0,0-.41.17.53.53,0,0,0-.17.41.56.56,0,0,0,.16.41.58.58,0,0,0,.42.18h.75Z" transform="translate(-309 -229)" style="fill:#fdca5c"/><path d="M327.78,269.29h-1.63v-.59h1.63a.58.58,0,0,0,.59-.59.58.58,0,0,0-.17-.41.59.59,0,0,0-.42-.17H327v-.59h.75a1.18,1.18,0,0,1,.84,2A1.2,1.2,0,0,1,327.78,269.29Z" transform="translate(-309 -229)" style="fill:#fdca5c"/><rect x="18.11" y="35.97" width="0.59" height="4.53" style="fill:#fdca5c"/><path d="M346,255.63a5.89,5.89,0,1,1-5.88-5.89A5.88,5.88,0,0,1,346,255.63Z" transform="translate(-309 -229)" style="fill:#fdca5c"/><path d="M344.81,255.63a4.71,4.71,0,1,1-4.7-4.71A4.69,4.69,0,0,1,344.81,255.63Z" transform="translate(-309 -229)" style="fill:#ffdb79"/><path d="M340.6,256h-1a1.55,1.55,0,0,1-1.54-1.55,1.54,1.54,0,0,1,.45-1.09,1.56,1.56,0,0,1,1.09-.45h2.14v.78h-2.14a.76.76,0,0,0-.54.22.79.79,0,0,0-.22.54.77.77,0,0,0,.76.77h1Z" transform="translate(-309 -229)" style="fill:#fdca5c"/><path d="M340.6,258.32h-2.14v-.78h2.14a.79.79,0,0,0,.54-.22.77.77,0,0,0,0-1.08.79.79,0,0,0-.54-.22h-1v-.78h1a1.54,1.54,0,0,1,1.09.45,1.52,1.52,0,0,1,.45,1.09,1.54,1.54,0,0,1-.45,1.09A1.55,1.55,0,0,1,340.6,258.32Z" transform="translate(-309 -229)" style="fill:#fdca5c"/><rect x="30.72" y="23.66" width="0.78" height="5.93" style="fill:#fdca5c"/><path d="M340.11,279.79a3.19,3.19,0,1,1-3.19-3.19A3.19,3.19,0,0,1,340.11,279.79Z" transform="translate(-309 -229)" style="fill:#fdca5c"/><path d="M339.47,279.79a2.55,2.55,0,1,1-2.55-2.55A2.55,2.55,0,0,1,339.47,279.79Z" transform="translate(-309 -229)" style="fill:#ffdb79"/><path d="M337.19,280h-.54a.82.82,0,0,1-.59-.25.8.8,0,0,1-.25-.59.84.84,0,0,1,.84-.83h1.16v.42h-1.16a.38.38,0,0,0-.29.12.4.4,0,0,0-.12.29.44.44,0,0,0,.11.3.42.42,0,0,0,.3.12h.54Z" transform="translate(-309 -229)" style="fill:#fdca5c"/><path d="M337.19,281.25H336v-.42h1.17a.47.47,0,0,0,.29-.12.45.45,0,0,0,.12-.3.4.4,0,0,0-.12-.29.42.42,0,0,0-.29-.12h-.54v-.42h.54a.82.82,0,0,1,.83.83.85.85,0,0,1-.83.84Z" transform="translate(-309 -229)" style="fill:#fdca5c"/><rect x="27.71" y="49.18" width="0.42" height="3.21" style="fill:#fdca5c"/></svg>